<?xml version="1.0" encoding="utf-8"?>
<!-- Generator: Adobe Illustrator 16.0.4, SVG Export Plug-In . SVG Version: 6.00 Build 0)  -->
<!DOCTYPE svg PUBLIC "-//W3C//DTD SVG 1.1//EN" "http://www.w3.org/Graphics/SVG/1.1/DTD/svg11.dtd">
<svg version="1.1" id="Layer_1" xmlns="http://www.w3.org/2000/svg" xmlns:xlink="http://www.w3.org/1999/xlink" x="0px" y="0px"
	 width="512px" height="512px" viewBox="0 0 512 512" enable-background="new 0 0 512 512" xml:space="preserve">
<g>
	<path fill="#333333" d="M511.992,169.955c-0.039-26.924-22.044-48.929-48.949-48.949L364.5,121V80.5h-0.625
		c0-44.459-81.335-80.5-181.667-80.5C81.875,0,0.541,36.041,0.541,80.5H0v351h0.541c0,44.459,81.335,80.5,181.667,80.5
		c100.333,0,181.667-36.041,181.667-80.5h0.625v-37.658l98.509,0.006c0.017,0,0.035,0,0.052,0c26.912,0,48.891-21.996,48.939-48.837
		L511.992,169.955z M184.5,138c-80.634,0-146-25.744-146-57.5S103.866,23,184.5,23s146,25.744,146,57.5S265.134,138,184.5,138z
		 M463.061,352.848h-0.049l-98.512-0.006V162l98.512,0.006c4.319,0.003,7.975,3.671,7.98,8.009L471,344.969
		C470.974,349.242,467.346,352.848,463.061,352.848z"/>
</g>
</svg>
