<?xml version="1.0" encoding="utf-8"?>
<!-- Generator: Adobe Illustrator 16.0.3, SVG Export Plug-In . SVG Version: 6.00 Build 0)  -->
<!DOCTYPE svg PUBLIC "-//W3C//DTD SVG 1.1//EN" "http://www.w3.org/Graphics/SVG/1.1/DTD/svg11.dtd">
<svg version="1.1" id="Layer_1" xmlns="http://www.w3.org/2000/svg" xmlns:xlink="http://www.w3.org/1999/xlink" x="0px" y="0px"
	 width="512px" height="512px" viewBox="0 0 512 512" enable-background="new 0 0 512 512" xml:space="preserve">
<g>
	<path fill="#333333" d="M458.36,253.117c-6.836-3.745-11.479-10.541-12.468-18.279c-1.524-11.932-4.16-23.52-7.825-34.428
		c-2.475-7.411-1.271-15.547,3.264-21.904l35.516-49.747l-21.497-27.001c-0.213-0.243-0.428-0.491-0.628-0.752l-21.615-27.094
		l-56.369,23.596c-7.156,2.993-15.329,2.401-21.979-1.611c-10.312-6.217-21.282-11.464-32.571-15.594
		c-7.344-2.679-12.948-8.719-15.075-16.233L291.047,7.377H220.98l-16.052,56.62c-2.12,7.477-7.699,13.513-15.002,16.195
		c-11.457,4.227-22.458,9.514-32.718,15.704c-6.662,4.006-14.829,4.611-21.992,1.611L78.841,73.912l-21.61,27.094
		c-0.234,0.294-0.469,0.575-0.715,0.863l-0.201,0.227L35.1,128.752l35.589,49.831c4.535,6.354,5.745,14.5,3.264,21.907
		c-3.666,10.906-6.294,22.439-7.826,34.302c-0.997,7.711-5.61,14.477-12.426,18.225L0,282.52l7.491,32.92
		c0.173,0.549,0.32,1.123,0.447,1.686l7.679,33.749l61.13,3.217c7.819,0.423,14.976,4.568,19.209,11.156
		c6.186,9.638,13.57,18.921,21.964,27.603c5.397,5.593,7.805,13.424,6.481,21.082l-10.447,60.254l30.411,14.675
		c0.542,0.214,1.084,0.447,1.599,0.703l31.167,15.048l40.691-45.828c5.183-5.832,12.822-8.842,20.634-8.066
		c11.597,1.165,23.575,1.15,35.065,0c0.844-0.065,1.658-0.111,2.461-0.111c6.916,0,13.552,2.947,18.205,8.186l40.691,45.835
		l31.168-15.049c0.521-0.261,1.057-0.495,1.605-0.709v-0.007l30.403-14.667l-10.434-60.343c-1.324-7.65,1.07-15.482,6.475-21.067
		c8.105-8.394,15.569-17.75,22.231-27.804c4.254-6.439,11.316-10.479,19.021-10.889l61.051-3.217l7.704-33.902
		c0.055-0.24,0.107-0.469,0.147-0.703L512,282.465L458.36,253.117z M255.935,356c-55.132,0-99.985-44.859-99.985-100
		c0-55.14,44.853-100,99.985-100c55.204,0,100.116,44.86,100.116,100C356.051,311.141,311.139,356,255.935,356z"/>
</g>
</svg>
