<?xml version="1.0" encoding="utf-8"?>
<!-- Generator: Adobe Illustrator 16.0.3, SVG Export Plug-In . SVG Version: 6.00 Build 0)  -->
<!DOCTYPE svg PUBLIC "-//W3C//DTD SVG 1.1//EN" "http://www.w3.org/Graphics/SVG/1.1/DTD/svg11.dtd">
<svg version="1.1" id="Layer_1" xmlns="http://www.w3.org/2000/svg" xmlns:xlink="http://www.w3.org/1999/xlink" x="0px" y="0px"
	 width="512px" height="512px" viewBox="0 0 512 512" enable-background="new 0 0 512 512" xml:space="preserve">
<path fill="#333333" d="M293.247,163.791c-2.853,0.022-5.381,13.211-7.069,33.858l-63.473,0.044v40.259h61.613
	c-0.107,5.837-0.173,11.848-0.194,18.054c0.021,6.163,0.065,12.205,0.17,18.042l-61.592,0.045v40.28l63.451-0.022
	c1.69,20.691,4.213,33.858,7.046,33.858c63.608-0.023,106.114-31.739,115.63-73.881L512,274.372v-36.723H408.813
	C399.305,195.531,356.837,163.813,293.247,163.791z"/>
<polygon fill="#333333" points="164.742,258.458 98.677,258.565 108.138,281.649 23.065,285.629 0,229.335 65.269,252.561 
	54.538,226.371 "/>
</svg>
