<?xml version="1.0" encoding="utf-8"?>
<!-- Generator: Adobe Illustrator 16.0.3, SVG Export Plug-In . SVG Version: 6.00 Build 0)  -->
<!DOCTYPE svg PUBLIC "-//W3C//DTD SVG 1.1//EN" "http://www.w3.org/Graphics/SVG/1.1/DTD/svg11.dtd">
<svg version="1.1" id="Layer_1" xmlns="http://www.w3.org/2000/svg" xmlns:xlink="http://www.w3.org/1999/xlink" x="0px" y="0px"
	 width="512px" height="512px" viewBox="0 0 512 512" enable-background="new 0 0 512 512" xml:space="preserve">
<path fill="#333333" d="M496.563,151.513l-63.471,22.864c-12.725,4.533-26.947-2.151-31.516-14.883l-23.529-65.936
	c-4.584-12.732,2.088-26.906,14.881-31.426l63.398-22.745c12.74-4.583,13.441-13.454,1.416-19.732c0,0-64.141-33.753-112.18-16.551
	c-47.887,17.14-78.996,59.356-85.191,106.534c0,0-2.803,26.71,4.82,54.633l-62.445,62.411
	c-19.186,19.128-50.57,50.519-69.671,69.691L14.357,415.044c-19.143,19.199-19.143,50.534,0,69.706l14.609,14.616
	c19.158,19.199,50.499,19.199,69.656,0.112l118.719-118.796c19.087-19.144,34.825-34.853,34.825-34.853
	c0-0.056,15.703-15.695,34.832-34.825l60.848-60.798c26.99,9.354,57.094,10.152,86.131-0.231
	c47.842-17.194,76.066-83.817,76.15-83.992l0,0C515.355,153.51,509.258,147,496.563,151.513z"/>
</svg>
