<?xml version="1.0" encoding="utf-8"?>
<!-- Generator: Adobe Illustrator 16.0.3, SVG Export Plug-In . SVG Version: 6.00 Build 0)  -->
<!DOCTYPE svg PUBLIC "-//W3C//DTD SVG 1.1//EN" "http://www.w3.org/Graphics/SVG/1.1/DTD/svg11.dtd">
<svg version="1.1" id="Layer_1" xmlns="http://www.w3.org/2000/svg" xmlns:xlink="http://www.w3.org/1999/xlink" x="0px" y="0px"
	 width="512px" height="512px" viewBox="0 0 512 512" enable-background="new 0 0 512 512" xml:space="preserve">
<path fill="#333333" d="M293.247,163.791c-2.853,0.022-5.381,13.211-7.069,33.858l-63.473,0.044v40.259h61.613
	c-0.107,5.837-0.173,11.848-0.194,18.054c0.021,6.163,0.065,12.205,0.17,18.042l-61.592,0.045v40.28l63.451-0.022
	c1.69,20.691,4.213,33.858,7.046,33.858c63.608-0.023,106.114-31.739,115.63-73.881L512,274.372v-36.723H408.813
	C399.305,195.531,356.837,163.813,293.247,163.791z"/>
<g>
	<path fill="#333333" d="M164.827,168.159c0.001-21.465-17.374-38.878-38.806-38.878c-14.133,0-26.5,7.582-33.281,18.906
		c-4.685-0.882-9.512-1.359-14.45-1.359C35.051,146.827,0,181.949,0,225.278c0,24.624,11.333,46.593,29.044,60.974
		c0,0,20.527,17.48,20.527,36.239h0.438c-4.909,0-8.924,3.82-8.924,8.499c0,4.669,4.017,8.501,8.924,8.501
		c-4.909,0-8.924,3.826-8.924,8.5c0,4.675,4.017,8.5,8.924,8.5c-4.909,0-8.924,3.829-8.924,8.504c0,4.674,4.017,8.498,8.924,8.498
		h4.859v2.117c0,3.911,3.193,7.109,7.092,7.109h32.566c3.901,0,7.091-3.199,7.091-7.109v-2.117h4.594
		c4.912,0,8.927-3.822,8.927-8.498c0-4.674-4.015-8.504-8.927-8.504c4.912,0,8.927-3.824,8.927-8.5c0-4.673-4.015-8.5-8.927-8.5
		c4.912,0,8.927-3.83,8.927-8.501c0-4.679-4.015-8.499-8.927-8.499h0.619c0-15.188,13.363-29.542,18.441-34.45
		c19.012-14.313,31.307-37.092,31.307-62.758c0-9.794-1.802-19.164-5.076-27.809C159.663,190.344,164.827,179.858,164.827,168.159z
		 M126.021,138.439c16.355,0,29.662,13.331,29.662,29.719c0,16.394-13.306,29.728-29.662,29.728
		c-16.352,0-29.655-13.333-29.655-29.728C96.369,151.771,109.67,138.439,126.021,138.439z M148.089,225.277
		c0,22.203-10.174,42.603-27.922,55.965l-0.416,0.313l-0.377,0.363c-5.322,5.143-16.581,17.42-20.013,32.07H82.348v-42.856
		c0-2.338-1.91-4.251-4.239-4.251c-2.336,0-4.244,1.913-4.244,4.251v42.856H57.044c-4.23-18.167-20.421-32.432-22.511-34.21
		l-0.074-0.064l-0.075-0.064c-16.461-13.362-25.905-33.184-25.905-54.372c0-38.57,31.318-69.951,69.81-69.951
		c3.682,0,7.297,0.292,10.829,0.848c-1.22,3.776-1.889,7.801-1.889,11.984c0,21.474,17.374,38.891,38.793,38.891
		c6.593,0,12.797-1.653,18.234-4.561C146.727,209.637,148.089,217.297,148.089,225.277z"/>
	<path fill="#333333" d="M118.839,167.67c-0.041,0.205-0.075,0.413-0.096,0.624c-0.001,0.016-0.001,0.031-0.003,0.046
		c-0.017,0.163-0.032,0.327-0.035,0.493c-0.001,0.041,0.003,0.08,0.003,0.119c0,0.005,0,0.01,0,0.013
		c0,0.02,0.004,0.038,0.004,0.056c0.002,0.196,0.009,0.393,0.029,0.585c0.003,0.039,0.01,0.075,0.016,0.113
		c0.019,0.176,0.045,0.352,0.079,0.526c0.01,0.046,0.023,0.091,0.033,0.138c0.036,0.162,0.075,0.324,0.125,0.481
		c0.014,0.05,0.033,0.097,0.049,0.144c0.05,0.153,0.104,0.305,0.165,0.454c0.019,0.045,0.041,0.088,0.061,0.134
		c0.065,0.148,0.135,0.296,0.211,0.438c0.02,0.035,0.041,0.07,0.062,0.105c0.082,0.148,0.169,0.296,0.264,0.436
		c0.016,0.024,0.034,0.049,0.051,0.071c0.102,0.15,0.21,0.296,0.325,0.436c0.009,0.012,0.02,0.024,0.031,0.035
		c0.125,0.151,0.255,0.295,0.391,0.433c0.002,0.001,0.004,0.002,0.006,0.004c0.874,0.876,1.997,1.5,3.259,1.759
		c0.019,0.005,0.039,0.007,0.059,0.01c0.187,0.037,0.377,0.068,0.571,0.087c0.044,0.006,0.089,0.007,0.135,0.01
		c0.136,0.012,0.272,0.027,0.412,0.028c0.036,0.001,0.068-0.002,0.103-0.002c0.013,0,0.025,0.002,0.039,0.002
		c0.049,0,0.097-0.006,0.148-0.008c0.157-0.004,0.314-0.009,0.466-0.022c0.073-0.009,0.143-0.02,0.216-0.028
		c0.042-0.006,0.085-0.011,0.128-0.018v0.007l0.129-0.023c0.047-0.008,0.094-0.017,0.141-0.026l0.057-0.009
		c0.008-0.003,0.015-0.004,0.023-0.005l20.866-3.775l0.112-5.056l-16.824-3.098l-3.374-16.717c0-1.386-1.123-2.522-2.521-2.522
		c-1.384,0-2.519,1.136-2.519,2.522l-3.348,20.762c-0.019,0.073-0.034,0.148-0.049,0.221
		C118.839,167.662,118.839,167.667,118.839,167.67z"/>
	<path fill="#333333" d="M97.338,252.18H58.872c-2.253,0-4.093,1.843-4.093,4.1v0.296c0,2.255,1.84,4.102,4.093,4.102h38.466
		c2.252,0,4.093-1.848,4.093-4.102v-0.296C101.433,254.023,99.59,252.18,97.338,252.18z"/>
	<path fill="#333333" d="M97.338,237.704H58.872c-2.253,0-4.093,1.843-4.093,4.101v0.294c0,2.257,1.84,4.102,4.093,4.102h38.466
		c2.252,0,4.093-1.846,4.093-4.102v-0.294C101.433,239.547,99.59,237.704,97.338,237.704z"/>
	<path fill="#333333" d="M97.338,223.357H58.872c-2.253,0-4.093,1.848-4.093,4.104v0.293c0,2.258,1.84,4.102,4.093,4.102h38.466
		c2.252,0,4.093-1.844,4.093-4.102v-0.293C101.433,225.205,99.59,223.357,97.338,223.357z"/>
</g>
</svg>
