<?xml version="1.0" encoding="utf-8"?>
<!-- Generator: Adobe Illustrator 16.0.3, SVG Export Plug-In . SVG Version: 6.00 Build 0)  -->
<!DOCTYPE svg PUBLIC "-//W3C//DTD SVG 1.1//EN" "http://www.w3.org/Graphics/SVG/1.1/DTD/svg11.dtd">
<svg version="1.1" id="Layer_1" xmlns="http://www.w3.org/2000/svg" xmlns:xlink="http://www.w3.org/1999/xlink" x="0px" y="0px"
	 width="512px" height="512px" viewBox="0 0 512 512" enable-background="new 0 0 512 512" xml:space="preserve">
<path fill="#333333" d="M489.186,140.495L281.242,8.886c-12.549-7.942-33.136-8.03-45.751-0.195l-212.554,132
	C10.322,148.525,0,167.085,0,181.935v300.194c0,14.851,12.15,27,27,27h458c14.85,0,27-12.149,27-27V181.935
	C512,167.085,501.733,148.437,489.186,140.495z M459.184,437.539l-19.67,18.496l-99.674-105.99l-86.321,82.333l-85.23-83.257
	L67.746,456.035l-19.669-18.496l100.894-107.287L44.886,228.576l-2.191-2c0-17.268,14.128-31.396,31.396-31.396h363.818
	c17.269,0,31.396,14.128,31.396,31.396c0,0-34.937,33.954-76.835,73.27l-33.093,31.563L459.184,437.539z"/>
</svg>
