<?xml version="1.0" encoding="utf-8"?>
<!-- Generator: Adobe Illustrator 16.0.3, SVG Export Plug-In . SVG Version: 6.00 Build 0)  -->
<!DOCTYPE svg PUBLIC "-//W3C//DTD SVG 1.1//EN" "http://www.w3.org/Graphics/SVG/1.1/DTD/svg11.dtd">
<svg version="1.1" id="Layer_1" xmlns="http://www.w3.org/2000/svg" xmlns:xlink="http://www.w3.org/1999/xlink" x="0px" y="0px"
	 width="512px" height="512px" viewBox="0 0 512 512" enable-background="new 0 0 512 512" xml:space="preserve">
<path fill="#333333" d="M257.438,0c-66.331,0-120.112,70.216-120.112,156.84c0,86.633,53.781,156.85,120.112,156.85
	c66.333,0,120.104-70.217,120.104-156.85C377.542,70.216,323.77,0,257.438,0z M449.053,388.678
	c-29.577-19.589-114.776-32.593-114.776-32.593s-55.252,58.637-78.679,58.637c-23.473,0-78.679-58.637-78.679-58.637
	S91.72,369.089,62.151,388.678C32.584,408.248,19.515,512,19.515,512h472.971C492.485,512,483.829,411.707,449.053,388.678z"/>
</svg>
