<?xml version="1.0" encoding="utf-8"?>
<!-- Generator: Adobe Illustrator 16.0.3, SVG Export Plug-In . SVG Version: 6.00 Build 0)  -->
<!DOCTYPE svg PUBLIC "-//W3C//DTD SVG 1.1//EN" "http://www.w3.org/Graphics/SVG/1.1/DTD/svg11.dtd">
<svg version="1.1" id="Layer_1" xmlns="http://www.w3.org/2000/svg" xmlns:xlink="http://www.w3.org/1999/xlink" x="0px" y="0px"
	 width="512px" height="512px" viewBox="0 0 512 512" enable-background="new 0 0 512 512" xml:space="preserve">
<g>
	<path d="M473.955,226.629c2.577,2.312,5.798,3.449,9.007,3.449c3.699,0,7.384-1.514,10.048-4.485
		c4.978-5.547,4.514-14.078-1.033-19.054l-58.157-52.171l-53.335,26.666l-140.736,64.71l-26.964-36.614H109.41v-53.246h26.735
		c4.826,0,8.738-3.912,8.738-8.738c0-4.827-3.912-8.739-8.739-8.739H65.195c-4.826,0-8.738,3.912-8.738,8.739
		c0,4.826,3.912,8.738,8.738,8.738h26.737v53.246H0v160.402l299.817,4.062l96.256-170.181l33.393-16.695L473.955,226.629z
		 M284.197,346.393l-257.211-3.485V236.116h172.157l31.909,43.33l122.998-56.555L284.197,346.393z"/>
	<path d="M508.299,301.359c-3.028-6.234-21.277-44.017-21.277-44.017s-17.989,37.214-21.279,44.017
		c-3.287,6.804-11.639,29.725,21.279,29.725C521.311,331.084,511.324,307.597,508.299,301.359z"/>
</g>
</svg>
