<?xml version="1.0" encoding="utf-8"?>
<!-- Generator: Adobe Illustrator 16.0.3, SVG Export Plug-In . SVG Version: 6.00 Build 0)  -->
<!DOCTYPE svg PUBLIC "-//W3C//DTD SVG 1.1//EN" "http://www.w3.org/Graphics/SVG/1.1/DTD/svg11.dtd">
<svg version="1.1" id="Layer_1" xmlns="http://www.w3.org/2000/svg" xmlns:xlink="http://www.w3.org/1999/xlink" x="0px" y="0px"
	 width="512px" height="512px" viewBox="0 0 512 512" enable-background="new 0 0 512 512" xml:space="preserve">
<g>
	<path fill="#333333" d="M255.885,159.612h-0.006L0,159.569l34.47,48.663c3.779,20.669,12.694,69.053,14.093,75.712
		c0.233,1.168,0.465,2.279,0.684,3.367c2.978,14.953,4.793,23.963,34.047,30.918c38.959,9.235,128.062,27.205,172.604,34.201h0.015
		c44.554-6.996,133.798-24.966,172.758-34.201c29.269-6.953,31.056-15.965,34.062-30.918c0.212-1.088,0.431-2.199,0.687-3.367
		c1.494-7.141,11.931-63.969,14.091-75.712L512,159.569L255.885,159.612z M457.62,207.585c-1.2,7.11-10.554,62.714-12.715,75.303
		c-2.694,15.797-4.539,22.951-19.826,26.906c-24.844,6.466-88.267,20.813-169.054,33.779v0.016
		c-80.985-12.97-144.254-27.329-169.085-33.795c-15.297-3.955-17.123-11.109-19.819-26.907c-1.315-7.702-5.927-34.99-12.734-75.358
		l-27.154-38.802h228.793h228.778L457.62,207.585z"/>
	<rect x="258.928" y="182.749" fill="#333333" width="70.588" height="29.146"/>
	<rect x="258.928" y="226.187" fill="#333333" width="70.588" height="10.587"/>
	<rect x="182.771" y="260.528" fill="#333333" width="70.599" height="10.477"/>
	<path fill="#333333" d="M182.738,323.089c11.538,2.152,25.281,4.602,41.571,7.52c8.898,1.604,18.67,3.35,29.036,5.115l0.026-50.386
		h-70.599L182.738,323.089z"/>
	<polygon fill="#333333" points="98.584,202.687 104.534,202.687 95.706,187.873 248.259,187.873 248.259,202.475 253.371,202.475 
		253.371,182.775 46.022,182.775 49.626,187.873 92.34,192.214 	"/>
	<path fill="#333333" d="M81.651,299.615l36.275,3.974c1.103,1.35,2.499,2.583,4.387,3.768l55.079,0.033v-12.336H77.904
		C78.826,297.103,79.987,298.522,81.651,299.615z"/>
	<path fill="#333333" d="M258.843,335.381c7.757-1.387,15.431-2.644,22.454-3.778c5.866-1.004,11.627-2.014,17.247-3.023
		c0.367-0.063,0.735-0.129,1.099-0.195c25.73-4.617,48.771-9.184,68.241-13.293c15.483-3.748,22.151-6.771,25.826-10.873
		l34.749-3.604c2.635-1.201,4.3-2.773,5.533-5.363h-175.09L258.843,335.381z M264.016,300.347h126.119
		c-6.008,7.079-23.271,10.834-102.804,25.055c-7.097,1.271-15.188,2.272-23.315,3.736V300.347z"/>
	<path fill="#333333" d="M258.928,271.034h5.111v-14.856h135.103c-0.179,1.45-1.441,11.46-1.897,14.784h5.152
		c0.479-3.51,0.948-7.193,1.414-10.917l37.857-3.909c0.282-1.665,0.566-3.358,0.854-5.07H258.928V271.034z"/>
	<path fill="#333333" d="M258.928,275.765h-0.05v14.698l140.451-0.004c0.335-1.719,0.678-3.67,1.039-5.772l37.188-4.264
		c0.218-1.285,0.486-2.854,0.795-4.675H258.928V275.765z"/>
	<path fill="#333333" d="M334.981,216.711h-0.052v29.651l70.442-0.001c0.925-7.644,1.734-14.919,2.39-21l39.777-4.066l0.779-4.612
		H334.981V216.711z"/>
	<path fill="#333333" d="M62.1,207.191c0.281,1.658,0.556,3.29,0.827,4.902l40.374,4.324c0.151,1.646,0.314,3.463,0.467,5.08
		h149.604h0.072v-14.306h-0.072L62.1,207.191L62.1,207.191z"/>
	<path fill="#333333" d="M66.151,231.202l39.322,4.458c0.389,3.516,0.803,7.201,1.238,10.957h5.137
		c-0.616-5.327-1.191-10.531-1.71-15.307h138.123v15.051h5.111v-20.146H65.309C65.594,227.909,65.877,229.577,66.151,231.202z"/>
	<polygon fill="#333333" points="334.931,190.857 334.931,202.546 410.663,202.531 410.703,202.475 413.661,202.475 
		415.358,199.712 456.771,195.436 460.01,190.802 	"/>
	<path fill="#333333" d="M70.328,255.938l38.027,4.433c0.925,7.369,1.878,14.498,2.804,20.505h0.258
		c0,0.004,0.002,0.011,0.002,0.016h65.974v-29.797H69.509C69.793,252.771,70.064,254.383,70.328,255.938z"/>
</g>
</svg>
