<?xml version="1.0" encoding="utf-8"?>
<!-- Generator: Adobe Illustrator 16.0.3, SVG Export Plug-In . SVG Version: 6.00 Build 0)  -->
<!DOCTYPE svg PUBLIC "-//W3C//DTD SVG 1.1//EN" "http://www.w3.org/Graphics/SVG/1.1/DTD/svg11.dtd">
<svg version="1.1" id="Layer_1" xmlns="http://www.w3.org/2000/svg" xmlns:xlink="http://www.w3.org/1999/xlink" x="0px" y="0px"
	 width="512px" height="512px" viewBox="0 0 512 512" enable-background="new 0 0 512 512" xml:space="preserve">
<g>
	<path fill="#333333" d="M297.09,160.118c-35.234-40.771-94.913-67.282-172.242-67.312c-5.047,0.041-9.522,23.381-12.51,59.925
		L0.004,152.809v71.25h109.043c-0.191,10.329-0.307,20.967-0.345,31.949c0.039,10.909,0.116,21.603,0.299,31.934L0,288.019v71.289
		l97.934-0.035L297.09,160.118z"/>
	<path fill="#333333" d="M343.29,223.522L148.528,418.286c99.344-7.367,165.255-60.653,180.881-129.852L512,288.512v-64.989H343.29z
		"/>
	<polygon fill="#333333" points="471.128,64.961 447.051,40.883 447.043,40.891 447.041,40.891 40.891,447.041 64.964,471.117 
		64.968,471.113 64.972,471.113 	"/>
</g>
</svg>
