<?xml version="1.0" encoding="utf-8"?>
<!-- Generator: Adobe Illustrator 16.0.3, SVG Export Plug-In . SVG Version: 6.00 Build 0)  -->
<!DOCTYPE svg PUBLIC "-//W3C//DTD SVG 1.1//EN" "http://www.w3.org/Graphics/SVG/1.1/DTD/svg11.dtd">
<svg version="1.1" id="Layer_1" xmlns="http://www.w3.org/2000/svg" xmlns:xlink="http://www.w3.org/1999/xlink" x="0px" y="0px"
	 width="512px" height="512px" viewBox="0 0 512 512" enable-background="new 0 0 512 512" xml:space="preserve">
<path fill="#333333" d="M255.994,0C114.618,0,0.016,114.606,0.016,255.985C0.016,397.39,114.618,512,255.994,512
	c141.391,0.001,255.99-114.61,255.99-256.015C511.984,114.606,397.385,0,255.994,0z M420.882,158.674
	c0.005,22.25-0.822,41.429-2.185,57.969l-86.295-112.926h88.479L420.882,158.674L420.882,158.674z M409.85,274.596
	c-2.061,8.276-4.214,14.974-6.261,20.323c-8.816,23.061-18.816,39.892-26.944,51.26c-8.129-11.368-18.136-28.197-26.954-51.258
	c-7.364-19.228-16.046-55.665-17.167-121.592L409.85,274.596z M85.502,403c-34.026-39.438-54.608-90.809-54.608-147.019
	c0-124.313,100.778-225.087,225.087-225.087c42.449,0,82.146,11.748,116.034,32.167l-0.105,0.119h-64.637c0,0,0,24.36,0,48.834
	l-0.119,0.088H186.663c0,0,0,24.358,0,48.83l-0.026,0.088H66.099c0,0,0,77.375,0,94.867c0,17.497-0.232,95.793,18.954,145.883
	c0.149,0.396,0.3,0.791,0.451,1.183L85.502,403z M211.792,152.659v-0.021h88.478v54.956c0.004,22.258-0.821,41.442-2.183,57.993
	L211.792,152.659z M289.243,323.544c-2.062,8.283-4.213,14.979-6.263,20.334c-8.813,23.026-18.814,39.854-26.943,51.222
	c-8.135-11.367-18.141-28.19-26.95-51.218c-7.371-19.232-16.048-55.689-17.171-121.604L289.243,323.544z M91.228,201.557h88.479
	v54.958c0.004,22.257-0.821,41.441-2.179,57.988l-86.3-112.933V201.557z M108.52,392.802c-7.368-19.23-16.042-55.667-17.167-121.612
	l77.332,101.268c-2.063,8.285-4.214,14.986-6.266,20.341c-8.815,23.029-18.815,39.854-26.948,51.224
	C127.341,432.652,117.336,415.827,108.52,392.802z M255.982,481.11c-35.731,0-69.509-8.327-99.521-23.145l-0.042-0.146
	c9.213-13.003,20.028-31.462,29.458-56.048c7.301-19.054,11.791-42.185,14.555-64.498l0.062,0.059
	c1.533,5.389,3.232,10.595,5.119,15.522c20.324,53.09,47.16,77.629,50.354,80.313h0.08c3.194-2.685,30.028-27.224,50.394-80.313
	c7.291-19.019,11.777-42.101,14.541-64.408l0.11-0.119c1.535,5.411,3.238,10.627,5.133,15.604
	c20.319,53.089,47.156,77.63,50.35,80.311h0.081c3.195-2.681,30.03-27.222,50.395-80.311
	c19.198-50.128,18.962-128.387,18.962-145.881v-22.71l0.222,0.292c22.063,34.81,34.839,76.085,34.839,120.348
	C481.071,380.328,380.298,481.11,255.982,481.11z"/>
</svg>
