<?xml version="1.0" encoding="utf-8"?>
<!-- Generator: Adobe Illustrator 16.0.3, SVG Export Plug-In . SVG Version: 6.00 Build 0)  -->
<!DOCTYPE svg PUBLIC "-//W3C//DTD SVG 1.1//EN" "http://www.w3.org/Graphics/SVG/1.1/DTD/svg11.dtd">
<svg version="1.1" id="Layer_1" xmlns="http://www.w3.org/2000/svg" xmlns:xlink="http://www.w3.org/1999/xlink" x="0px" y="0px"
	 width="512px" height="512px" viewBox="0 0 512 512" enable-background="new 0 0 512 512" xml:space="preserve">
<g>
	<path d="M511.869,194.436c-0.036-4.269-0.438-8.673-1.033-13.104c-2.28-16.917-8.193-33.985-14.583-45.307
		c-1.804-3.215-3.634-6.118-5.409-8.227c-1.884-2.2-4.217-4.248-6.763-6.218c-0.396-0.312-0.809-0.637-1.22-0.935
		c-2.558-1.876-5.436-3.639-8.591-5.31c-0.529-0.285-1.062-0.557-1.617-0.828c-3.313-1.697-6.867-3.309-10.712-4.807
		c-0.106-0.039-0.267-0.093-0.371-0.146c-3.965-1.524-8.175-2.949-12.575-4.275c-0.339-0.113-0.662-0.22-1-0.312
		c-4.415-1.319-9.057-2.525-13.821-3.672c-0.53-0.12-1.047-0.239-1.578-0.365c-4.872-1.127-9.896-2.194-15.026-3.162
		c-0.119-0.013-0.245-0.04-0.365-0.065c-10.738-1.995-21.954-3.665-33.263-5.024c-0.271-0.027-0.544-0.065-0.814-0.093
		c-46.043-5.502-93.346-6.231-115.009-6.231c-7.689,0-12.163,0.08-12.163,0.08s-4.441-0.08-12.124-0.08
		c-10.839,0-28.093,0.172-48.396,1.04c-0.087,0-0.166,0-0.246,0.021c-4.985,0.212-10.142,0.471-15.438,0.77
		c-0.219,0.013-0.432,0.025-0.637,0.04c-10.453,0.597-21.411,1.412-32.501,2.459c-0.451,0.04-0.896,0.08-1.359,0.126
		c-5.276,0.498-10.559,1.067-15.843,1.697c-0.703,0.08-1.412,0.159-2.115,0.252c-5.323,0.643-10.632,1.345-15.868,2.135
		c-0.26,0.025-0.505,0.08-0.75,0.105c-5.091,0.775-10.129,1.632-15.053,2.54c-0.558,0.1-1.114,0.191-1.657,0.298
		c-4.859,0.915-9.612,1.929-14.226,2.989c-0.802,0.191-1.591,0.364-2.379,0.57c-4.56,1.101-9.002,2.254-13.238,3.513
		c-0.556,0.166-1.067,0.338-1.598,0.504c-4.116,1.253-8.066,2.579-11.786,4.018c-0.298,0.113-0.623,0.219-0.922,0.325
		c-3.745,1.471-7.198,3.042-10.468,4.7c-0.608,0.312-1.226,0.623-1.822,0.935c-3.108,1.656-5.946,3.394-8.485,5.256
		c-0.444,0.325-0.842,0.664-1.272,0.987c-2.552,1.969-4.872,4.011-6.735,6.204c-1.789,2.108-3.612,5.012-5.415,8.2
		c-6.384,11.309-12.291,28.392-14.57,45.308c-0.624,4.641-1.055,9.254-1.042,13.708c0,0.093-0.013,0.198-0.013,0.277h0.178
		c0.982,13.965,12.705,25.088,26.909,25.088h75.09c14.203,0,25.927-11.123,26.909-25.088h0.056c0.025-0.107,0.052-0.188,0.084-0.279
		c1.398-5.131,3.01-9.824,5.29-13.748c1.551-2.624,3.341-4.972,5.8-6.629c5.482-3.685,17.438-6.481,31.734-8.701v26.432
		C166.567,198.998,86.16,296.7,86.16,358.092c0,23.564-0.002,33.164-0.004,35.923l0.004,4.646c0,14.841,12.143,26.984,26.983,26.984
		h285.55c14.841,0,26.984-12.144,26.984-26.984l0.013-4.624c-0.008-2.809-0.014-12.439-0.014-35.931
		c0-63.71-86.181-166.089-86.181-166.089l-0.047-0.007v-26.063l0.047,0.006c14.404,2.147,26.556,4.985,32.037,8.71
		c2.461,1.657,4.236,4.018,5.787,6.642c2.279,3.874,3.877,8.546,5.282,13.64c0.274,14.608,12.301,26.476,26.972,26.476h75.442
		c14.841,0,26.983-12.143,26.983-26.984H511.869z M255.996,376.26c-37.85-0.025-68.561-30.729-68.561-68.54
		c0-37.915,30.724-68.566,68.561-68.541c2.155,0,4.188,0.412,6.297,0.637c2.526,0.228,5.104,0.254,7.55,0.758
		c0.474,0.092,0.883,0.305,1.354,0.423c30.545,6.908,53.367,34.099,53.367,66.725C324.55,345.53,293.865,376.26,255.996,376.26z
		 M311.504,188.277l-55.589,0.027l-55.542-0.027l-1.339,0.181v-25.567c31.082-2.255,82.2-2.259,113.431,0.007v25.509
		L311.504,188.277z"/>
	<circle cx="256" cy="307.72" r="41.684"/>
</g>
</svg>
