<?xml version="1.0" encoding="utf-8"?>
<!-- Generator: Adobe Illustrator 16.0.3, SVG Export Plug-In . SVG Version: 6.00 Build 0)  -->
<!DOCTYPE svg PUBLIC "-//W3C//DTD SVG 1.1//EN" "http://www.w3.org/Graphics/SVG/1.1/DTD/svg11.dtd">
<svg version="1.1" id="Layer_1" xmlns="http://www.w3.org/2000/svg" xmlns:xlink="http://www.w3.org/1999/xlink" x="0px" y="0px"
	 width="512px" height="512px" viewBox="0 0 512 512" enable-background="new 0 0 512 512" xml:space="preserve">
<path d="M370.52,0c-0.007,0-0.013,0-0.02,0H128c-7.456,0-13.5,6.044-13.5,13.5S120.544,27,128,27h229.001v26.5H256
	c-4.694,0-8.5,3.806-8.5,8.5s3.806,8.5,8.5,8.5h101.001V102H256c-4.694,0-8.5,3.806-8.5,8.5s3.806,8.5,8.5,8.5h101.001v31.5H256
	c-4.694,0-8.5,3.806-8.5,8.5s3.806,8.5,8.5,8.5h101.001V199H256c-4.694,0-8.5,3.806-8.5,8.5s3.806,8.5,8.5,8.5h101.001v26.5H128
	c-7.456,0-13.5,6.044-13.5,13.5s6.044,13.5,13.5,13.5h229.001V296H256c-4.694,0-8.5,3.807-8.5,8.5s3.806,8.5,8.5,8.5h101.001v31.5
	H256c-4.694,0-8.5,3.807-8.5,8.5s3.806,8.5,8.5,8.5h101.001V393H256c-4.694,0-8.5,3.806-8.5,8.5s3.806,8.5,8.5,8.5h101.001v31.5H256
	c-4.694,0-8.5,3.806-8.5,8.5s3.806,8.5,8.5,8.5h101.001V485H128c-7.456,0-13.5,6.044-13.5,13.5S120.544,512,128,512h229.001H370.5
	H384V0H370.52z"/>
</svg>
