<?xml version="1.0" encoding="utf-8"?>
<!-- Generator: Adobe Illustrator 16.0.3, SVG Export Plug-In . SVG Version: 6.00 Build 0)  -->
<!DOCTYPE svg PUBLIC "-//W3C//DTD SVG 1.1//EN" "http://www.w3.org/Graphics/SVG/1.1/DTD/svg11.dtd">
<svg version="1.1" id="Layer_1" xmlns="http://www.w3.org/2000/svg" xmlns:xlink="http://www.w3.org/1999/xlink" x="0px" y="0px"
	 width="512px" height="512px" viewBox="0 0 512 512" enable-background="new 0 0 512 512" xml:space="preserve">
<g>
	<path d="M255.75,0.252c-141.159,0-256,114.838-256,256c0,141.163,114.841,256,256,256c141.162,0,256-114.838,256-256
		C511.75,115.09,396.912,0.252,255.75,0.252z M255.75,481.222c-124.049,0-224.97-100.919-224.97-224.97
		c0-124.048,100.92-224.97,224.97-224.97c124.049,0,224.97,100.921,224.97,224.97S379.799,481.222,255.75,481.222z"/>
	<path d="M281.352,245.641V142.653c0-14.138-11.463-25.6-25.601-25.6s-25.6,11.462-25.6,25.6V256.24
		c-0.001,1.688,0.171,3.374,0.506,5.024c0.141,0.726,0.417,1.4,0.625,2.113c0.256,0.887,0.468,1.8,0.828,2.675
		c0.337,0.813,0.807,1.563,1.228,2.325c0.378,0.688,0.678,1.413,1.125,2.073c0.859,1.275,1.844,2.464,2.913,3.564
		c0.103,0.111,0.167,0.236,0.27,0.337l102.398,102.399c9.994,10,26.208,10,36.2,0c9.994-10,9.994-26.199,0-36.199L281.352,245.641z"
		/>
</g>
</svg>
