<?xml version="1.0" encoding="utf-8"?>
<!-- Generator: Adobe Illustrator 16.0.3, SVG Export Plug-In . SVG Version: 6.00 Build 0)  -->
<!DOCTYPE svg PUBLIC "-//W3C//DTD SVG 1.1//EN" "http://www.w3.org/Graphics/SVG/1.1/DTD/svg11.dtd">
<svg version="1.1" id="Layer_1" xmlns="http://www.w3.org/2000/svg" xmlns:xlink="http://www.w3.org/1999/xlink" x="0px" y="0px"
	 width="512px" height="512px" viewBox="0 0 512 512" enable-background="new 0 0 512 512" xml:space="preserve">
<g>
	<g>
		<path fill="#333333" d="M511.519,209.255c0,0,1.609,1.193-3.637-9.333c-5.271-10.561-30.404-11.727-39.3-12.579
			c-8.965-0.799-9.771,14.979-9.771,14.979l-10.936,0.438c-3.469-8.212-7.515-16.322-11.782-24.073
			c-5.402,3.122-11.169,5.681-17.236,7.557c5.961,10.805,12.066,22.688,17.669,35.132c0,0-137.787-4.435-179.945-4.829h-2.428
			c-42.151,0.381-179.973,4.829-179.973,4.829c18.741-41.619,43.096-77.046,48.785-86.372c0.95-1.547,3.067-2.554,3.948-2.671
			c34.415-3.81,128.029-4.559,128.029-4.559h0.84c0,0,26.715,0.22,56.854,1.003c-1.612-5.604-2.66-11.441-3.078-17.453
			c-28.417-0.902-53.378-1.41-53.378-1.41h-0.368c0,0-119.946,2.442-133.316,6.12c0,0-4.871,2.449-6.891,4.434
			c-2.032,2.047-34.063,40.959-51.499,82.291l-10.941-0.438c0,0-0.826-15.757-9.734-14.979c-8.924,0.854-34.048,2.019-39.335,12.579
			c-5.26,10.525-3.607,9.333-3.607,9.333s-2.443,5.669,3.607,6.835c6.1,1.235,38.127,5.272,50.276,8.923
			c0,0-8.499,14.6-13.772,29.232c-5.28,14.605-7.702,15.361-9.36,20.268c0,0-0.784,2.025-1.18,6.521
			c-0.43,4.406,4.843,169.813,4.843,169.813s-0.409,13.322,8.908,13.322c9.326,0,41.75,0,41.75,0s6.911-3.191,6.911-10.061
			c0-6.896,0.805-15.029,0.805-15.029h147.916h13.329h164.16c0,0,0.819,8.104,0.819,15.029c0,6.867,6.869,10.061,6.869,10.061
			s32.417,0,41.756,0s8.951-13.322,8.951-13.322s5.229-165.428,4.828-169.813c-0.374-4.496-1.193-6.52-1.193-6.52
			c-1.609-4.905-4.079-5.643-9.325-20.269c-5.271-14.62-13.766-29.232-13.766-29.232c12.129-3.648,44.156-7.688,50.232-8.923
			C513.96,214.939,511.519,209.255,511.519,209.255z M128.488,316.572c0,0-0.736,2.305-3.227,2.109
			c-2.54-0.207-42.985-2.971-56.468-6.203c-13.53-3.262-20.565-8.617-21.627-25.664c0,0-0.063-10.9,0.264-12.691
			c0.285-1.888,8.104-18.941,24.306-13.57c16.222,5.447,41.077,17.326,41.077,17.326s12.434,6.182,15.675,30.021V316.572z
			 M463.822,274.152c0.317,1.789,0.29,12.688,0.29,12.688c-1.081,17.049-8.09,22.404-21.605,25.666
			c-13.53,3.232-53.954,5.996-56.521,6.203c-2.54,0.195-3.222-2.109-3.222-2.109v-8.674c3.222-23.854,15.653-30.02,15.653-30.02
			s24.868-11.88,41.09-17.32C455.759,255.209,463.531,272.266,463.822,274.152z"/>
	</g>
	<path fill="#333333" d="M393.915,47.83c-31.803,0-57.587,25.783-57.587,57.585c0,31.802,25.784,57.586,57.587,57.586
		s57.586-25.783,57.586-57.585C451.501,73.613,425.718,47.83,393.915,47.83z M418.162,109.961h-19.701v19.701h-9.092v-19.701h-19.7
		v-9.092h19.7v-19.7h9.092v19.701h19.701V109.961L418.162,109.961z"/>
</g>
</svg>
