<?xml version="1.0" encoding="utf-8"?>
<!-- Generator: Adobe Illustrator 16.0.3, SVG Export Plug-In . SVG Version: 6.00 Build 0)  -->
<!DOCTYPE svg PUBLIC "-//W3C//DTD SVG 1.1//EN" "http://www.w3.org/Graphics/SVG/1.1/DTD/svg11.dtd">
<svg version="1.1" id="Layer_1" xmlns="http://www.w3.org/2000/svg" xmlns:xlink="http://www.w3.org/1999/xlink" x="0px" y="0px"
	 width="512px" height="512px" viewBox="0 0 512 512" enable-background="new 0 0 512 512" xml:space="preserve">
<g>
	<path fill="#333333" d="M58.816,191.207c0.455-0.739,1.467-1.221,1.888-1.277c14.137-1.564,49.153-2.05,58.765-2.156
		c4.513-0.984,8.905-1.359,12.229-1.643c0.529-0.045,1.004-0.085,1.415-0.124l0.055-0.006l0.055-0.005
		c0.496-0.043,0.997-0.064,1.49-0.064c2.507,0,4.854,0.533,6.975,1.524c1.453-2.625,2.947-5.177,4.447-7.636
		c-12.771-0.394-23.598-0.614-23.598-0.614h-0.176c0,0-57.375,1.168-63.77,2.928c0,0-2.33,1.171-3.296,2.12
		c-0.972,0.98-16.293,19.593-24.633,39.363l-5.233-0.21c0,0-0.396-7.537-4.656-7.165c-4.269,0.409-16.287,0.967-18.815,6.018
		c-2.516,5.034-1.725,4.463-1.725,4.463s-1.168,2.712,1.725,3.271c2.917,0.59,18.238,2.521,24.048,4.268
		c0,0-4.065,6.983-6.587,13.983c-2.526,6.986-3.685,7.347-4.478,9.695c0,0-0.375,0.969-0.564,3.117
		c-0.206,2.107,2.316,81.229,2.316,81.229s-0.195,6.371,4.261,6.371c4.461,0,19.971,0,19.971,0s3.306-1.525,3.306-4.811
		c0-3.301,0.385-7.189,0.385-7.189h70.753h0.682c-2.532-80.218-2.398-84.174-2.296-85.28c0.301-3.381,0.921-5.621,1.347-6.831
		c0.774-2.25,1.7-3.835,2.379-4.998c0.727-1.246,1.551-2.657,3.021-6.724c0.315-0.876,0.649-1.748,0.993-2.612
		c-20.244,0.187-86.014,2.31-86.014,2.31C44.445,212.614,56.095,195.667,58.816,191.207z M53.96,259.547
		c0,0,5.948,2.957,7.498,14.361v4.148c0,0-0.352,1.102-1.542,1.008c-1.215-0.1-20.562-1.42-27.011-2.965
		c-6.471-1.563-9.837-4.123-10.345-12.277c0,0-0.03-5.215,0.126-6.072c0.136-0.9,3.876-9.06,11.626-6.49
		C42.072,253.866,53.96,259.547,53.96,259.547z"/>
	<path fill="#333333" d="M511.769,226.722c0,0,0.771,0.571-1.737-4.463c-2.521-5.053-14.545-5.609-18.799-6.018
		c-4.289-0.382-4.675,7.165-4.675,7.165l-5.229,0.21c-8.353-19.771-23.658-38.383-24.64-39.363c-0.971-0.955-3.28-2.12-3.28-2.12
		c-6.398-1.76-63.775-2.928-63.775-2.928h-0.176c0,0-10.824,0.221-23.593,0.613c1.496,2.456,2.986,5.006,4.438,7.632
		c2.121-0.989,4.469-1.521,6.979-1.521c0.505,0,1.019,0.022,1.525,0.068L378.85,186l0.043,0.004
		c0.409,0.039,0.887,0.079,1.414,0.124c3.33,0.284,7.735,0.66,12.26,1.65c10.438,0.122,44.263,0.625,58.12,2.148
		c0.412,0.063,1.427,0.538,1.871,1.277c2.716,4.462,14.379,21.407,23.341,41.315c0,0-64.495-2.077-85.402-2.304
		c0.344,0.868,0.68,1.743,0.997,2.624c1.45,4.043,2.271,5.445,2.993,6.683c0.686,1.173,1.616,2.766,2.386,5.034
		c0.457,1.29,1.075,3.556,1.354,6.881c0.089,1.003,0.223,4.749-2.296,85.216h71.431c0,0,0.393,3.877,0.393,7.189
		c0,3.285,3.285,4.813,3.285,4.813s15.508,0,19.975,0c4.468,0,4.281-6.371,4.281-6.371s2.502-79.131,2.31-81.23
		c-0.179-2.148-0.568-3.115-0.568-3.115c-0.771-2.349-1.951-2.7-4.463-9.696c-2.521-6.993-6.584-13.983-6.584-13.983
		c5.803-1.745,21.123-3.678,24.028-4.268C512.938,229.439,511.769,226.722,511.769,226.722z M488.954,257.764
		c0.152,0.855,0.139,6.07,0.139,6.07c-0.516,8.154-3.869,10.717-10.336,12.277c-6.471,1.545-25.807,2.867-27.035,2.967
		c-1.215,0.092-1.539-1.01-1.539-1.01v-4.148c1.539-11.41,7.486-14.359,7.486-14.359s11.896-5.683,19.654-8.284
		C485.097,248.703,488.815,256.861,488.954,257.764z"/>
	<path fill="#333333" d="M385.275,252.562c-0.214-2.572-0.684-3.73-0.684-3.73c-0.921-2.808-2.334-3.229-5.337-11.6
		c-3.017-8.366-7.877-16.729-7.877-16.729c6.94-2.088,25.27-4.399,28.746-5.105c3.495-0.66,2.098-3.912,2.098-3.912
		s0.031,0.023,0.063,0.023c0.143,0,0.303-0.453-2.146-5.363c-3.018-6.045-17.398-6.711-22.489-7.199
		c-0.127-0.012-0.251-0.017-0.371-0.017c-4.781-0.001-5.221,8.589-5.221,8.589l-6.258,0.25c-9.99-23.652-28.304-45.92-29.478-47.092
		c-1.16-1.144-3.924-2.537-3.924-2.537c-7.655-2.105-76.301-3.503-76.301-3.503h-0.21c0,0-68.641,1.397-76.292,3.503
		c0,0-2.788,1.401-3.944,2.537c-1.163,1.172-19.492,23.439-29.47,47.092l-6.261-0.25c0,0-0.45-8.588-5.21-8.588
		c-0.117,0-0.237,0.005-0.36,0.016c-5.107,0.489-19.485,1.156-22.51,7.199c-2.454,4.909-2.278,5.363-2.13,5.363
		c0.034,0,0.066-0.023,0.066-0.023s-1.398,3.244,2.064,3.912c3.491,0.706,21.819,3.016,28.771,5.105c0,0-4.863,8.354-7.881,16.729
		c-3.022,8.358-4.408,8.791-5.356,11.6c0,0-0.449,1.158-0.675,3.73c-0.246,2.521,2.771,97.179,2.771,97.179
		s-0.233,7.623,5.098,7.623c5.337,0,23.892,0,23.892,0s3.955-1.826,3.955-5.756c0-3.947,0.46-8.602,0.46-8.602h84.646h7.628h93.942
		c0,0,0.469,4.637,0.469,8.602c0,3.93,3.933,5.756,3.933,5.756s18.551,0,23.896,0s5.122-7.623,5.122-7.623
		S385.505,255.07,385.275,252.562z M183.028,272.9c0,0-0.388,1.213-1.678,1.213c-0.055,0-0.111-0.002-0.168-0.006
		c-1.454-0.119-24.599-1.699-32.314-3.551c-7.743-1.865-11.769-4.932-12.376-14.687c0,0-0.036-6.238,0.151-7.264
		c0.141-0.934,3.509-8.36,10.415-8.361c1.078,0,2.242,0.181,3.494,0.596c9.284,3.117,23.506,9.915,23.506,9.915
		s7.116,3.538,8.97,17.182V272.9z M254.941,215.659c-24.122,0.218-102.991,2.764-102.991,2.764
		c10.725-23.816,24.662-44.091,27.917-49.428c0.544-0.886,1.755-1.462,2.259-1.528c19.695-2.181,73.267-2.609,73.267-2.609h0.481
		c0,0,53.545,0.44,73.271,2.609c0.491,0.074,1.705,0.643,2.238,1.528c3.248,5.337,17.201,25.611,27.922,49.428
		c0,0-78.85-2.539-102.976-2.764H254.941z M375.094,255.884c-0.618,9.756-4.63,12.821-12.363,14.688
		c-7.742,1.85-30.876,3.432-32.346,3.549c-0.059,0.006-0.116,0.008-0.171,0.008c-1.313,0-1.671-1.215-1.671-1.215v-4.963
		c1.842-13.651,8.957-17.181,8.957-17.181s14.231-6.798,23.514-9.911c1.258-0.416,2.427-0.598,3.508-0.598
		c6.918,0,10.264,7.427,10.406,8.36C375.111,249.646,375.094,255.884,375.094,255.884z"/>
</g>
</svg>
