<?xml version="1.0" encoding="utf-8"?>
<!-- Generator: Adobe Illustrator 16.0.3, SVG Export Plug-In . SVG Version: 6.00 Build 0)  -->
<!DOCTYPE svg PUBLIC "-//W3C//DTD SVG 1.1//EN" "http://www.w3.org/Graphics/SVG/1.1/DTD/svg11.dtd">
<svg version="1.1" id="Layer_1" xmlns="http://www.w3.org/2000/svg" xmlns:xlink="http://www.w3.org/1999/xlink" x="0px" y="0px"
	 width="512px" height="512px" viewBox="0 0 512 512" enable-background="new 0 0 512 512" xml:space="preserve">
<g>
	<g>
		<path fill="#333333" d="M42.678,0H14.229v512h483.543v-28.45H42.678V0z M469.322,341.329H440.9
			c-15.723,0-28.449,12.728-28.449,28.449v85.35h85.32v-85.349C497.771,354.057,485.072,341.329,469.322,341.329z M384,256.007
			c0-15.716-12.699-28.45-28.449-28.45h-28.45c-15.694,0-28.422,12.721-28.422,28.45v199.122H384V256.007z M270.229,142.229
			c0-15.716-12.727-28.436-28.449-28.436h-28.436c-15.716,0-28.438,12.72-28.438,28.436v312.9h85.337v-312.9H270.229z
			 M156.45,28.457c0-15.702-12.734-28.443-28.437-28.443H99.578c-15.702,0-28.45,12.742-28.45,28.443v426.672h85.336V28.457H156.45z
			"/>
	</g>
</g>
</svg>
