<?xml version="1.0" encoding="utf-8"?>
<!-- Generator: Adobe Illustrator 16.0.3, SVG Export Plug-In . SVG Version: 6.00 Build 0)  -->
<!DOCTYPE svg PUBLIC "-//W3C//DTD SVG 1.1//EN" "http://www.w3.org/Graphics/SVG/1.1/DTD/svg11.dtd">
<svg version="1.1" id="Layer_1" xmlns="http://www.w3.org/2000/svg" xmlns:xlink="http://www.w3.org/1999/xlink" x="0px" y="0px"
	 width="512px" height="512px" viewBox="0 0 512 512" enable-background="new 0 0 512 512" xml:space="preserve">
<g>
	<path fill="#333333" d="M409.598,220.399h-51.199c-14.125,0-25.6,11.462-25.6,25.601v197.6h102.4V246
		C435.199,231.861,423.747,220.399,409.598,220.399z"/>
	<path fill="#333333" d="M281.598,66.8h-51.199c-14.135,0-25.601,11.464-25.601,25.601v351.197h102.401V92.4
		C307.199,78.263,295.747,66.8,281.598,66.8z"/>
	<path fill="#333333" d="M153.6,143.601h-51.201c-14.136,0-25.599,11.462-25.599,25.6V443.6h102.399V169.2
		C179.199,155.063,167.748,143.601,153.6,143.601z"/>
	<path fill="#333333" d="M511.406,0h-25.007H25.601H0.594H0v486.4V512h25.601h460.798h25.007H512V0H511.406z M25.601,486.4V25.602
		h460.798V486.4H25.601z"/>
</g>
</svg>
