<?xml version="1.0" encoding="utf-8"?>
<!-- Generator: Adobe Illustrator 16.0.3, SVG Export Plug-In . SVG Version: 6.00 Build 0)  -->
<!DOCTYPE svg PUBLIC "-//W3C//DTD SVG 1.1//EN" "http://www.w3.org/Graphics/SVG/1.1/DTD/svg11.dtd">
<svg version="1.1" id="Layer_1" xmlns="http://www.w3.org/2000/svg" xmlns:xlink="http://www.w3.org/1999/xlink" x="0px" y="0px"
	 width="512px" height="512px" viewBox="0 0 512 512" enable-background="new 0 0 512 512" xml:space="preserve">
<g>
	<path fill="#333333" d="M458.105,0H53.895C24.25,0,0,24.25,0,53.895v404.211C0,487.749,24.25,512,53.895,512h404.211
		C487.749,512,512,487.749,512,458.105V53.895C512,24.25,487.749,0,458.105,0z M485.051,458.105
		c0,14.866-12.079,26.945-26.945,26.945H53.895c-14.862,0-26.947-12.079-26.947-26.945V53.895c0-14.862,12.085-26.947,26.947-26.947
		l404.21-0.001c14.866,0,26.945,12.085,26.945,26.947V458.105z"/>
	<path fill="#333333" d="M301.877,109.081c-7.604-7.656-22.703-13.92-33.479-13.92H152.842c-10.794,0-19.634,8.834-19.634,19.634
		v288.411c0,10.795,8.84,19.635,19.634,19.635h204.316c10.812,0,19.634-8.84,19.634-19.635V204.067
		c0.021-10.8-6.212-25.9-13.825-33.56L301.877,109.081z M357.177,403.186H152.853V114.794h115.209
		c-0.037,0.58-0.162,1.031-0.162,1.659v66.325c0,11.716,9.578,21.298,21.283,21.298h66.326c0.604,0,1.092-0.091,1.648-0.129
		c0,0.038,0.019,0.086,0.019,0.129V403.186z"/>
	<rect x="176.245" y="295.4" fill="#333333" width="139.878" height="19.636"/>
	<rect x="176.245" y="255.469" fill="#333333" width="139.878" height="19.813"/>
	<rect x="176.245" y="335.245" fill="#333333" width="103.063" height="19.635"/>
</g>
</svg>
