<?xml version="1.0" encoding="utf-8"?>
<!-- Generator: Adobe Illustrator 16.0.3, SVG Export Plug-In . SVG Version: 6.00 Build 0)  -->
<!DOCTYPE svg PUBLIC "-//W3C//DTD SVG 1.1//EN" "http://www.w3.org/Graphics/SVG/1.1/DTD/svg11.dtd">
<svg version="1.1" id="Layer_1" xmlns="http://www.w3.org/2000/svg" xmlns:xlink="http://www.w3.org/1999/xlink" x="0px" y="0px"
	 width="512px" height="512px" viewBox="0 0 512 512" enable-background="new 0 0 512 512" xml:space="preserve">
<g>
	<path fill="#333333" d="M435.238,200.645h-19.642c0.07-22.856,0.099-41.105,0.099-41.105C415.695,71.581,344.121,0,256.184,0
		C168.302,0,96.826,71.405,96.65,159.209h-0.042l-0.085,41.436H76.741c-27.057,0-48.984,23.138-48.984,51.609v208.138
		c0,28.506,21.928,51.608,48.984,51.608h358.496c27.1,0,49.006-23.117,49.006-51.608V252.254
		C484.272,223.797,462.337,200.645,435.238,200.645z M296.831,429.564h-81.634l19.382-71.054
		c-11.587-7.204-19.382-19.966-19.382-34.612c0-22.526,18.284-40.803,40.817-40.803c22.54,0,40.817,18.276,40.817,40.803
		c0,14.675-7.78,27.407-19.374,34.612L296.831,429.564z M356.699,200.645H155.422c0.069-22.02,0.084-39.825,0.111-41.105
		c0-55.485,45.158-100.629,100.65-100.629c55.464,0,100.601,45.158,100.601,100.629L356.699,200.645z"/>
</g>
</svg>
