<?xml version="1.0" encoding="utf-8"?>
<!-- Generator: Adobe Illustrator 16.0.3, SVG Export Plug-In . SVG Version: 6.00 Build 0)  -->
<!DOCTYPE svg PUBLIC "-//W3C//DTD SVG 1.1//EN" "http://www.w3.org/Graphics/SVG/1.1/DTD/svg11.dtd">
<svg version="1.1" id="Layer_1" xmlns="http://www.w3.org/2000/svg" xmlns:xlink="http://www.w3.org/1999/xlink" x="0px" y="0px"
	 width="512px" height="512px" viewBox="0 0 512 512" enable-background="new 0 0 512 512" xml:space="preserve">
<path fill="#333333" d="M293.247,163.791c-2.853,0.022-5.381,13.211-7.069,33.858l-63.473,0.044v40.259h61.613
	c-0.107,5.837-0.173,11.848-0.194,18.054c0.021,6.163,0.065,12.205,0.17,18.042l-61.592,0.045v40.28l63.451-0.022
	c1.69,20.691,4.213,33.858,7.046,33.858c63.608-0.023,106.114-31.739,115.63-73.881L512,274.372v-36.723H408.813
	C399.305,195.531,356.837,163.813,293.247,163.791z"/>
<g>
	<path fill="#333333" d="M81.661,174.322C36.569,174.322,0,210.901,0,255.995c0,45.104,36.569,81.679,81.661,81.679
		c45.113,0,81.681-36.575,81.681-81.679C163.342,210.903,126.773,174.322,81.661,174.322z M81.661,318.438
		c-34.419,0-62.422-28.015-62.422-62.443c0-34.426,28.002-62.431,62.422-62.431c34.431,0,62.441,28.006,62.441,62.431
		C144.103,290.429,116.091,318.438,81.661,318.438z"/>
	<path fill="#333333" d="M91.4,245.98l-7.098-35.109c0-2.922-2.362-5.304-5.304-5.305c-2.921,0-5.304,2.384-5.304,5.305
		l-7.051,43.634c-0.028,0.118-0.056,0.237-0.08,0.357c-0.031,0.149-0.051,0.302-0.078,0.453c-0.051,0.292-0.103,0.586-0.135,0.885
		c-0.02,0.171-0.024,0.346-0.037,0.517c-0.017,0.233-0.044,0.463-0.049,0.698c-0.001,0.059,0.006,0.115,0.006,0.173
		c0,0.035-0.006,0.071-0.006,0.105c0,0.14,0.017,0.277,0.021,0.417c0.01,0.292,0.018,0.584,0.044,0.871
		c0.017,0.169,0.045,0.334,0.066,0.501c0.038,0.287,0.075,0.575,0.132,0.857c0.029,0.154,0.071,0.305,0.106,0.457
		c0.068,0.291,0.137,0.578,0.222,0.859c0.039,0.135,0.09,0.264,0.135,0.396c0.1,0.296,0.2,0.588,0.32,0.873
		c0.044,0.106,0.096,0.209,0.143,0.314c0.135,0.303,0.275,0.604,0.431,0.896c0.042,0.076,0.089,0.15,0.131,0.227
		c0.175,0.312,0.358,0.62,0.558,0.916c0.031,0.048,0.065,0.091,0.099,0.137c0.22,0.32,0.449,0.631,0.696,0.931
		c0.016,0.021,0.032,0.037,0.048,0.058c1.381,1.662,3.147,2.99,5.173,3.844c0.006,0.003,0.011,0.005,0.017,0.007
		c0.396,0.165,0.8,0.314,1.214,0.442c0.042,0.014,0.084,0.024,0.124,0.035c0.379,0.115,0.764,0.216,1.155,0.297
		c0.088,0.02,0.178,0.029,0.266,0.047c0.35,0.063,0.7,0.123,1.058,0.162c0.141,0.014,0.283,0.019,0.426,0.028
		c0.25,0.02,0.498,0.048,0.751,0.055c0.064,0,0.127-0.007,0.19-0.007c0.038,0,0.074,0.007,0.113,0.007
		c0.144,0,0.283-0.019,0.426-0.023c0.28-0.009,0.561-0.017,0.837-0.042c0.205-0.02,0.403-0.052,0.604-0.079
		c0.049-0.007,0.099-0.012,0.149-0.02v0.01l0.204-0.036c0.126-0.021,0.253-0.041,0.378-0.066c0.077-0.016,0.154-0.027,0.23-0.043
		l43.853-7.908c2.939,0.066,5.388-2.264,5.453-5.206c0.064-2.92-2.276-5.366-5.218-5.42l0,0v-0.002L91.4,245.98z"/>
</g>
</svg>
