<?xml version="1.0" encoding="utf-8"?>
<!-- Generator: Adobe Illustrator 16.0.3, SVG Export Plug-In . SVG Version: 6.00 Build 0)  -->
<!DOCTYPE svg PUBLIC "-//W3C//DTD SVG 1.1//EN" "http://www.w3.org/Graphics/SVG/1.1/DTD/svg11.dtd">
<svg version="1.1" id="Layer_1" xmlns="http://www.w3.org/2000/svg" xmlns:xlink="http://www.w3.org/1999/xlink" x="0px" y="0px"
	 width="512px" height="512px" viewBox="0 0 512 512" enable-background="new 0 0 512 512" xml:space="preserve">
<g>
	<path fill="#333333" d="M467.913,255.774H355.115c-5.18,0-9.738,3.345-11.237,8.226l-17.893,58.795V11.548
		c0-5.928-4.583-10.904-10.596-11.5C314.997,0.024,314.61,0,314.235,0c-5.518,0-10.38,3.833-11.501,9.286l-76.078,374.481V137.731
		c0-5.439-3.852-10.13-9.25-11.285c-0.833-0.179-1.667-0.261-2.488-0.261c-4.512,0-8.737,2.571-10.679,6.761l-56.794,122.828H23.917
		c-6.476,0-11.726,5.167-11.726,11.546c0,6.383,5.25,11.549,11.726,11.549h131.071c4.613,0,8.785-2.656,10.684-6.764l37.511-81.115
		v309.462c0,5.928,4.577,10.902,10.583,11.498c0.394,0.023,0.792,0.049,1.178,0.049c5.523,0,10.38-3.834,11.5-9.285l76.072-374.506
		v273.319c0,5.729,4.28,10.596,10.019,11.43c0.589,0.094,1.179,0.131,1.762,0.131c5.119,0,9.696-3.311,11.202-8.227l38.374-125.994
		H467.99c-2.213-3.357-3.534-7.332-3.534-11.607C464.455,263.035,465.753,259.096,467.913,255.774z"/>
	<path fill="#333333" d="M486.191,253.847c-7.523,0-13.618,5.999-13.618,13.415c0,7.395,6.095,13.404,13.618,13.404
		c7.518,0,13.617-6.012,13.617-13.404C499.81,259.846,493.709,253.847,486.191,253.847z"/>
</g>
</svg>
