<?xml version="1.0" encoding="utf-8"?>
<!-- Generator: Adobe Illustrator 18.1.1, SVG Export Plug-In . SVG Version: 6.00 Build 0)  -->
<svg version="1.1" id="Layer_1" xmlns="http://www.w3.org/2000/svg" xmlns:xlink="http://www.w3.org/1999/xlink" x="0px" y="0px"
	 viewBox="0 0 512 512" enable-background="new 0 0 512 512" xml:space="preserve">
<g>
	<path fill="#333333" d="M256,0C114.8,0,0,114.8,0,256c0,141.2,114.8,256,256,256s256-114.8,256-256C512,114.8,397.2,0,256,0z
		 M256,478.9c-122.9,0-222.9-100-222.9-222.9S133.1,33.1,256,33.1s222.9,100,222.9,222.9S378.9,478.9,256,478.9z"/>
	<path fill="#333333" d="M254.2,222.2c-64.1,2.2-107.1,55.2-108.9,57.5c-6.1,7.6-4.8,18.7,2.8,24.8c7.6,6.1,18.7,4.9,24.8-2.8
		c0.3-0.4,34.5-42.5,82.6-44.2c30.3-1,60.5,14.6,89.8,46.4c6.6,7.2,17.8,7.7,24.9,1.1c0.2-0.2,0.4-0.4,0.5-0.5
		c6.6-6.6,6.9-17.4,0.5-24.4C334.7,240.2,295.3,220.8,254.2,222.2z"/>
	<path fill="#333333" d="M260,313.6c-11,0-21.7,4.4-29.5,12.2c-7.8,7.8-12.2,18.5-12.2,29.5c0,11,4.4,21.7,12.2,29.5
		c7.8,7.8,18.5,12.2,29.5,12.2c11,0,21.7-4.4,29.5-12.2c7.8-7.8,12.2-18.5,12.2-29.5c0-11-4.4-21.7-12.2-29.5
		C281.8,318.1,271,313.6,260,313.6z"/>
	<path fill="#333333" d="M426.2,225c-54.8-59.7-113.4-88.8-174.1-86.4c-95,3.7-158.6,83.4-161.3,86.8c-6,7.7-4.7,18.8,3,24.8
		c7.7,6,18.7,4.7,24.8-3c0.6-0.7,56-70.3,134.9-73.3c49.9-1.9,99.2,23.3,146.7,75c6.6,7.2,17.8,7.7,24.9,1.1
		c0.2-0.2,0.4-0.3,0.5-0.5C432.4,242.8,432.6,232,426.2,225z"/>
</g>
</svg>
