<?xml version="1.0" encoding="utf-8"?>
<!-- Generator: Adobe Illustrator 16.0.3, SVG Export Plug-In . SVG Version: 6.00 Build 0)  -->
<!DOCTYPE svg PUBLIC "-//W3C//DTD SVG 1.1//EN" "http://www.w3.org/Graphics/SVG/1.1/DTD/svg11.dtd">
<svg version="1.1" id="Layer_1" xmlns="http://www.w3.org/2000/svg" xmlns:xlink="http://www.w3.org/1999/xlink" x="0px" y="0px"
	 width="512px" height="512px" viewBox="0 0 512 512" enable-background="new 0 0 512 512" xml:space="preserve">
<g>
	<path fill="#333333" d="M464,53.903H48c-26.527,0-48,22.61-48,50.527v303.14c0,27.888,21.473,50.526,48,50.526h416
		c26.528,0,48-22.639,48-50.526v-303.14C512,76.514,490.528,53.903,464,53.903z M43.875,424.25l-11.701-12.319l131.965-138.932
		l11.701,12.333L43.875,424.25z M468.125,424.25L336.166,285.333L347.875,273l131.958,138.931L468.125,424.25z M256,328.333
		L32.056,109.042l20.368-21.417L256,286.32L459.611,87.625l20.333,21.417L256,328.333z"/>
</g>
</svg>
