<?xml version="1.0" encoding="utf-8"?>
<!-- Generator: Adobe Illustrator 16.0.3, SVG Export Plug-In . SVG Version: 6.00 Build 0)  -->
<!DOCTYPE svg PUBLIC "-//W3C//DTD SVG 1.1//EN" "http://www.w3.org/Graphics/SVG/1.1/DTD/svg11.dtd">
<svg version="1.1" id="Layer_1" xmlns="http://www.w3.org/2000/svg" xmlns:xlink="http://www.w3.org/1999/xlink" x="0px" y="0px"
	 width="512px" height="512px" viewBox="0 0 512 512" enable-background="new 0 0 512 512" xml:space="preserve">
<g>
	<g>
		<path fill="#333333" d="M509.944,208.65H339.603v-32.896c0-1.854-1.504-3.358-3.354-3.358H175.75
			c-1.852,0-3.353,1.504-3.353,3.358v32.896H50.309c-1.854,0-4.12,1.503-5.062,3.358L0.411,299.998
			c-0.943,1.852-0.209,3.354,1.646,3.354h170.34v32.898c0,1.852,1.501,3.354,3.353,3.354h160.498c1.852,0,3.354-1.502,3.354-3.354
			v-32.898h122.09c1.853,0,4.119-1.502,5.063-3.354l44.833-87.989C512.533,210.154,511.795,208.65,509.944,208.65z M430.201,282.02
			H318.597v36.5H193.515v-36.5H55.375l26.538-52.08h111.603V193.44h125.082v36.499h138.142L430.201,282.02z"/>
	</g>
</g>
</svg>
