<?xml version="1.0" encoding="utf-8"?>
<!-- Generator: Adobe Illustrator 16.0.3, SVG Export Plug-In . SVG Version: 6.00 Build 0)  -->
<!DOCTYPE svg PUBLIC "-//W3C//DTD SVG 1.1//EN" "http://www.w3.org/Graphics/SVG/1.1/DTD/svg11.dtd">
<svg version="1.1" id="Layer_1" xmlns="http://www.w3.org/2000/svg" xmlns:xlink="http://www.w3.org/1999/xlink" x="0px" y="0px"
	 width="512px" height="512px" viewBox="0 0 512 512" enable-background="new 0 0 512 512" xml:space="preserve">
<g>
	<path d="M499.174,243.177c-0.218,0-0.432,0.022-0.646,0.033c-6.347-55.583-53.534-98.761-110.818-98.761
		c-23.716,0-45.7,7.408-63.775,20.027c-20.082-13.029-43.524-20.027-67.938-20.027c-24.333,0-47.637,6.913-67.855,20.019
		c-18.073-12.615-40.053-20.019-63.765-20.019c-57.283,0-104.474,43.18-110.818,98.764c-0.245-0.014-0.487-0.037-0.734-0.037
		C5.771,243.176,0,248.947,0,256c0,7.053,5.771,12.824,12.824,12.824c0.248,0,0.49-0.023,0.734-0.037
		c6.344,55.585,53.535,98.764,110.818,98.764c61.608,0,111.551-49.942,111.551-111.551c0-27.718-10.113-53.069-26.844-72.578
		c14.315-7.833,30.306-11.941,46.914-11.941c16.652,0,32.727,4.155,46.989,11.962c-16.721,19.506-26.826,44.85-26.826,72.557
		c0,61.608,49.944,111.551,111.551,111.551c57.284,0,104.472-43.177,110.818-98.762c0.216,0.013,0.43,0.033,0.646,0.033
		c7.054,0,12.824-5.771,12.824-12.823C512,248.946,506.227,243.177,499.174,243.177z M124.374,340.52
		c-46.604,0-84.52-37.915-84.52-84.519s37.916-84.519,84.52-84.519c46.604,0,84.52,37.916,84.52,84.519
		S170.979,340.52,124.374,340.52z M387.709,340.52c-46.604,0-84.519-37.915-84.519-84.519s37.915-84.519,84.519-84.519
		c46.605,0,84.521,37.916,84.521,84.519S434.313,340.52,387.709,340.52z"/>
</g>
</svg>
