<?xml version="1.0" encoding="utf-8"?>
<!-- Generator: Adobe Illustrator 16.0.3, SVG Export Plug-In . SVG Version: 6.00 Build 0)  -->
<!DOCTYPE svg PUBLIC "-//W3C//DTD SVG 1.1//EN" "http://www.w3.org/Graphics/SVG/1.1/DTD/svg11.dtd">
<svg version="1.1" id="Layer_1" xmlns="http://www.w3.org/2000/svg" xmlns:xlink="http://www.w3.org/1999/xlink" x="0px" y="0px"
	 width="512px" height="512px" viewBox="0 0 512 512" enable-background="new 0 0 512 512" xml:space="preserve">
<g>
	<path fill="#333333" d="M423.882,340.436l0.06-0.059l-59.351-59.355c-15.36-15.36-39.964-16.188-56.328-2.498l-14.976-14.975
		l0.044-0.045L82.105,52.282l-4.93-19.071L29.825,0L0.129,29.693L33.34,77.044l19.071,4.931l147.33,147.328
		c-0.015,0.015-0.029,0.029-0.044,0.044l78.888,78.887c-13.438,16.367-12.526,40.775,2.743,56.048l1.418,1.42
		c1.002,1.228,2.072,2.418,3.214,3.563l40.924,40.859l-0.028,0.029l74.654,74.66l83.283-83.285L423.882,340.436z"/>
	<path fill="#333333" d="M499.617,416.402l-83.262,83.26l0.153,0.154c16.247,16.243,42.831,16.246,59.076-0.004l24.187-24.181
		c16.243-16.246,16.246-42.834,0-59.076L499.617,416.402z"/>
	<path fill="#333333" d="M184.84,244.181c-17.08,17.065-36.823,36.829-50.34,50.395l-33.412,33.396
		c-1.021,0.844-2.016,1.737-2.969,2.688l-85.892,85.893c-16.246,16.246-16.246,42.83,0.001,59.074l24.183,24.187
		c16.245,16.243,42.831,16.243,59.075,0l1.419-1.421c1.228-1.002,2.418-2.071,3.564-3.215L217.73,377.845
		c14.034-14.073,26.229-26.266,31.548-31.579c-0.507-2.791-0.833-5.627-0.96-8.498c-0.399-8.922,1.083-17.711,4.27-25.838
		L184.84,244.181z"/>
	<path fill="#333333" d="M311.913,252.48c7.339-2.913,15.231-4.445,23.252-4.445c3.857,0,7.656,0.359,11.37,1.031l0.093-0.093
		c0.224,0.077,0.446,0.148,0.67,0.224c3.789,0.735,7.479,1.824,11.039,3.229c23.503,5.777,48.816,5.097,73.364-3.682
		c47.257-16.981,78.324-82.785,78.406-82.958c5.164-12.319-0.857-18.749-13.396-14.291L434.02,174.08
		c-12.566,4.477-26.615-2.125-31.13-14.7l-26.429-65.126c-4.529-12.576,2.062-26.576,14.695-31.042l62.619-22.463
		c12.583-4.527,13.274-13.289,1.396-19.49c0,0-63.351-33.338-110.799-16.348c-47.3,16.93-78.025,58.625-84.146,105.226
		c0,0-2.767,26.382,4.765,53.961l-20.736,20.726L311.913,252.48z"/>
</g>
</svg>
