<?xml version="1.0" encoding="utf-8"?>
<!-- Generator: Adobe Illustrator 16.0.3, SVG Export Plug-In . SVG Version: 6.00 Build 0)  -->
<!DOCTYPE svg PUBLIC "-//W3C//DTD SVG 1.1//EN" "http://www.w3.org/Graphics/SVG/1.1/DTD/svg11.dtd">
<svg version="1.1" id="Layer_1" xmlns="http://www.w3.org/2000/svg" xmlns:xlink="http://www.w3.org/1999/xlink" x="0px" y="0px"
	 width="512px" height="512px" viewBox="0 0 512 512" enable-background="new 0 0 512 512" xml:space="preserve">
<g>
	<g>
		<path fill="#333333" d="M63.903,255.651v-0.571c0-56.847,44.849-103.408,106.55-103.408c61.701,0,105.979,45.991,105.979,102.837
			v0.571c0,56.836-44.848,103.398-106.551,103.398C108.18,358.479,63.903,312.489,63.903,255.651z M230.44,255.651v-0.571
			c0-34.279-25.137-62.845-60.56-62.845c-35.42,0-59.987,27.993-59.987,62.273v0.571c0,34.269,25.137,62.834,60.56,62.834
			C205.876,317.913,230.44,289.921,230.44,255.651z"/>
		<path fill="#333333" d="M294.438,201.948h43.416v21.709c9.999-12.855,22.854-24.566,44.85-24.566
			c32.85,0,51.988,21.71,51.988,56.847v99.113h-43.417v-85.402c0-20.567-9.714-31.135-26.282-31.135
			c-16.566,0-27.139,10.567-27.139,31.135v85.402h-43.416V201.948z"/>
	</g>
	<g>
		<polygon fill="#333333" points="386.517,189.236 355.103,167.191 323.255,188.607 334.546,151.971 304.303,128.351 
			342.699,127.752 355.852,91.733 368.287,128.003 406.661,129.362 375.952,152.379 		"/>
	</g>
	<g>
		<path fill="#333333" d="M256,0C114.614,0,0,114.614,0,256c0,141.385,114.614,256,256,256c141.386,0,256-114.615,256-256
			C512,114.614,397.385,0,256,0z M254.962,498.188c-132.967,0-241.144-108.096-241.144-240.961
			c0-132.87,108.177-240.967,241.144-240.967s241.144,108.097,241.144,240.967C496.105,390.092,387.93,498.188,254.962,498.188z"/>
	</g>
</g>
</svg>
