<?xml version="1.0" encoding="utf-8"?>
<!-- Generator: Adobe Illustrator 16.0.3, SVG Export Plug-In . SVG Version: 6.00 Build 0)  -->
<!DOCTYPE svg PUBLIC "-//W3C//DTD SVG 1.1//EN" "http://www.w3.org/Graphics/SVG/1.1/DTD/svg11.dtd">
<svg version="1.1" id="Layer_1" xmlns="http://www.w3.org/2000/svg" xmlns:xlink="http://www.w3.org/1999/xlink" x="0px" y="0px"
	 width="512px" height="512px" viewBox="0 0 512 512" enable-background="new 0 0 512 512" xml:space="preserve">
<g>
	<path fill="#333333" d="M0,232.697c0-16.99,10.562-28.471,30.539-28.471c17.909,0,129.721,0,129.721,0v24.107
		c0,0-123.064,0-125.819,0c-3.517,0-6.657,1.797-6.657,7.115c0,6.89,0,35.13,0,40.181c0,4.899,2.064,8.035,8.496,8.035
		c6.426,0,83.114,0,88.624,0c4.667,0,8.266-1.683,8.266-7.806c0-5.51,0-9.413,0-9.413H81.278v-22.959h78.981c0,0,0,19.284,0,36.967
		c0,17.676-12.858,27.317-33.063,27.317c-20.205,0-76.913,0-96.427,0c-19.518,0-30.766-10.561-30.766-28.237
		C0.004,261.855,0,244.181,0,232.697z"/>
	<polygon fill="#333333" points="275.977,307.773 320.289,229.253 320.289,307.773 348.07,307.773 348.07,204.227 305.365,204.227 
		263.117,278.615 220.873,204.227 178.166,204.227 178.166,307.773 205.949,307.773 205.949,229.253 250.261,307.773 	"/>
	<path fill="#333333" d="M512,307.773c-20.204,0-96.659,0-116.176,0c-19.519,0-30.768-10.562-30.768-28.238
		c0-17.68-0.001-35.354-0.001-46.838c0-16.99,10.563-28.471,30.538-28.471c17.906,0,116.405,0,116.405,0v26.029
		c0,0-109.746,0-112.501,0c-3.52,0-6.661,1.8-6.661,7.12c0,6.884,0,31.288,0,36.336c0,4.897,2.068,8.039,8.494,8.039
		c6.43,0,105.159,0,110.668,0L512,307.773L512,307.773z"/>
</g>
</svg>
