<?xml version="1.0" encoding="utf-8"?>
<!-- Generator: Adobe Illustrator 16.0.3, SVG Export Plug-In . SVG Version: 6.00 Build 0)  -->
<!DOCTYPE svg PUBLIC "-//W3C//DTD SVG 1.1//EN" "http://www.w3.org/Graphics/SVG/1.1/DTD/svg11.dtd">
<svg version="1.1" id="Layer_1" xmlns="http://www.w3.org/2000/svg" xmlns:xlink="http://www.w3.org/1999/xlink" x="0px" y="0px"
	 width="512px" height="512px" viewBox="0 0 512 512" enable-background="new 0 0 512 512" xml:space="preserve">
<g>
	<path d="M256,347.753l-9.732-4.605L123.5,285.04v88.71c0,0,44.271,58,132.5,58c88.229,0,132.5-58,132.5-58v-88.71l-122.768,58.105
		L256,347.753z"/>
	<path d="M481.477,370.366h-5.5c-18.472,0-33.5-15.028-33.5-33.5V234.322L512,201.416L256,80.25L0,201.416l256,121.167
		l159.477-75.481v89.765c0,33.359,27.142,60.5,60.5,60.5h5.5c7.456,0,13.5-6.044,13.5-13.5S488.933,370.366,481.477,370.366z"/>
</g>
</svg>
