<?xml version="1.0" encoding="utf-8"?>
<!-- Generator: Adobe Illustrator 16.0.3, SVG Export Plug-In . SVG Version: 6.00 Build 0)  -->
<!DOCTYPE svg PUBLIC "-//W3C//DTD SVG 1.1//EN" "http://www.w3.org/Graphics/SVG/1.1/DTD/svg11.dtd">
<svg version="1.1" id="Layer_1" xmlns="http://www.w3.org/2000/svg" xmlns:xlink="http://www.w3.org/1999/xlink" x="0px" y="0px"
	 width="512px" height="512px" viewBox="0 0 512 512" enable-background="new 0 0 512 512" xml:space="preserve">
<g>
	<path fill="#333333" d="M125.223,271.061c5.686,5.707,5.7,14.901,0,20.608l-1.764,1.764c-5.693,5.664-14.908,5.664-20.6,0
		l-17.563-17.562c-5.686-5.706-5.686-14.901,0-20.614l1.765-1.766c5.692-5.699,14.907-5.685,20.6,0L125.223,271.061z"/>
	<path fill="#333333" d="M271.829,199.483c0,8.063-6.519,14.573-14.573,14.573h-2.49c-8.033-0.028-14.56-6.54-14.573-14.573v-24.827
		c0-8.048,6.525-14.56,14.56-14.56h2.505c8.054,0,14.559,6.512,14.572,14.573V199.483L271.829,199.483z"/>
	<path fill="#333333" d="M188.461,213.75c4.006,6.98,1.615,15.89-5.351,19.896l-2.156,1.252c-6.981,3.978-15.868,1.572-19.896-5.365
		l-12.403-21.539c-3.992-6.967-1.601-15.869,5.366-19.889l2.155-1.238c6.98-4.027,15.869-1.608,19.896,5.358L188.461,213.75z"/>
	<path fill="#333333" d="M386.848,271.061c-5.664,5.707-5.692,14.901,0,20.608l1.765,1.764c5.722,5.664,14.915,5.664,20.607,0
		l17.562-17.562c5.692-5.706,5.692-14.901,0-20.614l-1.765-1.766c-5.692-5.699-14.886-5.685-20.606,0L386.848,271.061z"/>
	<path fill="#333333" d="M323.632,213.75c-3.999,6.98-1.622,15.89,5.337,19.896l2.148,1.252c6.974,3.978,15.883,1.572,19.896-5.365
		l12.409-21.539c3.984-6.967,1.594-15.869-5.351-19.889l-2.164-1.238c-6.974-4.027-15.882-1.608-19.867,5.358L323.632,213.75z"/>
	<path fill="#333333" d="M256.004,108.302C103.727,108.302,0,226.196,0,364.292c0,12.424,0,17.676,0,19.711c0,0.854,0,1.138,0,1.167
		v18.528h512v-18.501v-1.195c0-2.092,0-7.4,0-19.725C512,230.494,408.281,108.302,256.004,108.302z M492.304,384.003h-39.336v-24.82
		c0-8.055-6.518-14.573-14.573-14.573h-10.247c-8.055,0-14.573,6.518-14.573,14.573v24.82H303.167c0-0.441,0-1.281,0-3.388
		c0-24.648-19.113-47.163-47.163-47.163c-2.349,0-4.533,0.37-6.746,0.654l-25.488-52.529c-3.572-7.2-12.332-10.132-19.511-6.573
		l-2.249,1.109c-7.216,3.543-10.141,12.311-6.59,19.539l25.667,52.898c-7.721,8.511-12.239,19.839-12.239,32.078
		c0,2.12,0,2.946,0,3.373H98.525v-24.819c0-8.056-6.525-14.574-14.573-14.574H73.698c-8.048,0-14.573,6.519-14.573,14.574v24.819
		H19.703c0-2.135,0-7.499,0-19.711c0-130.489,105.797-236.3,236.301-236.3c130.502,0,236.3,105.812,236.3,236.3
		C492.304,376.688,492.304,381.952,492.304,384.003z"/>
</g>
</svg>
