<?xml version="1.0" encoding="utf-8"?>
<!-- Generator: Adobe Illustrator 16.0.3, SVG Export Plug-In . SVG Version: 6.00 Build 0)  -->
<!DOCTYPE svg PUBLIC "-//W3C//DTD SVG 1.1//EN" "http://www.w3.org/Graphics/SVG/1.1/DTD/svg11.dtd">
<svg version="1.1" id="Layer_1" xmlns="http://www.w3.org/2000/svg" xmlns:xlink="http://www.w3.org/1999/xlink" x="0px" y="0px"
	 width="512px" height="512px" viewBox="0 0 512 512" enable-background="new 0 0 512 512" xml:space="preserve">
<g>
	<g>
		<rect x="132.945" y="209.527" fill="#231F20" width="218.561" height="30.956"/>
	</g>
	<g>
		<rect x="132.945" y="334.154" fill="#231F20" width="161.037" height="30.68"/>
	</g>
	<g>
		<path fill="#231F20" d="M424.699,117.729l-95.453-95.978C317.366,9.789,293.772,0,276.935,0H96.378
			C79.511,0,65.699,13.804,65.699,30.679V481.32c0,16.867,13.812,30.68,30.679,30.68h319.243c16.898,0,30.68-13.813,30.68-30.68
			V170.167C446.331,153.292,436.594,129.698,424.699,117.729z M415.651,481.29H96.394V30.679H276.41
			c-0.059,0.906-0.254,1.61-0.254,2.592v103.633c0,18.306,14.965,33.278,33.256,33.278h103.634c0.943,0,1.707-0.143,2.575-0.202
			c0,0.06,0.03,0.135,0.03,0.202V481.29L415.651,481.29z"/>
	</g>
	<g>
		<g>
			<g>
				<rect x="132.945" y="271.897" fill="#231F20" width="218.561" height="30.68"/>
			</g>
			<g>
				<rect x="132.945" y="209.505" fill="#231F20" width="218.561" height="30.956"/>
			</g>
			<g>
				<rect x="132.945" y="334.154" fill="#231F20" width="161.037" height="30.68"/>
			</g>
		</g>
	</g>
</g>
</svg>
