<?xml version="1.0" encoding="utf-8"?>
<!-- Generator: Adobe Illustrator 16.0.3, SVG Export Plug-In . SVG Version: 6.00 Build 0)  -->
<!DOCTYPE svg PUBLIC "-//W3C//DTD SVG 1.1//EN" "http://www.w3.org/Graphics/SVG/1.1/DTD/svg11.dtd">
<svg version="1.1" id="Layer_1" xmlns="http://www.w3.org/2000/svg" xmlns:xlink="http://www.w3.org/1999/xlink" x="0px" y="0px"
	 width="512px" height="512px" viewBox="0 0 512 512" enable-background="new 0 0 512 512" xml:space="preserve">
<g>
	<g>
		<path fill="#333333" d="M512,76.806H140.136l-12.132-50.598v-0.596H0c0,0,0,51.194,25.601,51.194h60.59L153.59,357.77v0.637
			c0,0,259.098,0,281.602,0c25.621,0,25.621-51.188,25.621-51.188H195.403l-6.146-25.607h271.555L512,76.806z M204.813,384.014
			c-28.282,0-51.194,22.92-51.194,51.188c0,28.282,22.926,51.188,51.194,51.188c28.261,0,51.194-22.904,51.194-51.188
			C256.007,406.934,233.073,384.014,204.813,384.014z M384.018,384.014c-28.297,0-51.216,22.92-51.216,51.188
			c0,28.282,22.92,51.188,51.216,51.188c28.268,0,51.174-22.904,51.174-51.188C435.205,406.934,412.285,384.014,384.018,384.014z"/>
	</g>
</g>
</svg>
