<?xml version="1.0" encoding="utf-8"?>
<!-- Generator: Adobe Illustrator 16.0.3, SVG Export Plug-In . SVG Version: 6.00 Build 0)  -->
<!DOCTYPE svg PUBLIC "-//W3C//DTD SVG 1.1//EN" "http://www.w3.org/Graphics/SVG/1.1/DTD/svg11.dtd">
<svg version="1.1" id="Layer_1" xmlns="http://www.w3.org/2000/svg" xmlns:xlink="http://www.w3.org/1999/xlink" x="0px" y="0px"
	 width="512px" height="512px" viewBox="0 0 512 512" enable-background="new 0 0 512 512" xml:space="preserve">
<path fill="#333333" d="M0,0v512h512V0H0z M254.863,129.999h43.33l21.176,140.771l21.639-140.771h42.83v192.283h-28.537V177.486
	l-24.1,144.796H306.58l-23.172-144.796v144.529h-28.545V129.999z M128.105,177.486c0-7.857,0-51.439,47.772-51.439
	c48.979,0,48.979,38.165,48.979,51.439v13.56h-29.293c0,0,0-7.151,0-13.56c0-7.382,0-25.107-19.181-25.107
	c-18.984,0-18.984,17.48-18.984,25.107c0,5.686,0,85.037,0,94.163c0,14.796,4.571,25.985,18.984,25.985s19.181-10.5,19.181-25.985
	c0-3.457,0-30.398,0-30.398h-16.725v-23.146h46.018v104.178l-28.315-0.269v-10.15c-2.423,3.85-13.81,14.092-30.147,14.057
	c-27.655-0.16-38.289-19.313-38.289-48.498C128.105,269.776,128.105,181.702,128.105,177.486z M384.078,385.953H127.92v-41.591
	h256.16v41.591H384.078z"/>
</svg>
