<?xml version="1.0" encoding="utf-8"?>
<!-- Generator: Adobe Illustrator 16.0.3, SVG Export Plug-In . SVG Version: 6.00 Build 0)  -->
<!DOCTYPE svg PUBLIC "-//W3C//DTD SVG 1.1//EN" "http://www.w3.org/Graphics/SVG/1.1/DTD/svg11.dtd">
<svg version="1.1" id="Layer_1" xmlns="http://www.w3.org/2000/svg" xmlns:xlink="http://www.w3.org/1999/xlink" x="0px" y="0px"
	 width="512px" height="512px" viewBox="0 0 512 512" enable-background="new 0 0 512 512" xml:space="preserve">
<path fill="#333333" d="M511.518,178.212c0,0,1.609,1.193-3.637-9.332c-5.273-10.561-30.404-11.727-39.3-12.579
	c-8.965-0.799-9.77,14.979-9.77,14.979l-10.936,0.438c-17.457-41.332-49.458-80.244-51.51-82.291
	c-2.026-1.998-6.857-4.434-6.857-4.434c-13.377-3.678-133.33-6.12-133.33-6.12h-0.368c0,0-119.946,2.442-133.316,6.12
	c0,0-4.871,2.449-6.891,4.434c-2.032,2.047-34.062,40.959-51.498,82.291l-10.941-0.438c0,0-0.826-15.757-9.734-14.979
	c-8.924,0.854-34.048,2.019-39.335,12.579c-5.259,10.525-3.607,9.332-3.607,9.332s-2.442,5.669,3.607,6.835
	c6.1,1.235,38.127,5.272,50.276,8.923c0,0-8.499,14.599-13.772,29.232c-5.28,14.605-7.702,15.362-9.36,20.268
	c0,0-0.784,2.025-1.18,6.521c-0.43,4.406,4.843,169.813,4.843,169.813s-0.408,13.322,8.909,13.322c9.326,0,41.75,0,41.75,0
	s6.911-3.191,6.911-10.061c0-6.896,0.805-15.029,0.805-15.029h147.915h13.329H418.68c0,0,0.819,8.104,0.819,15.029
	c0,6.869,6.869,10.061,6.869,10.061s32.417,0,41.756,0s8.951-13.322,8.951-13.322s5.23-165.428,4.828-169.813
	c-0.374-4.496-1.193-6.521-1.193-6.521c-1.609-4.905-4.079-5.642-9.325-20.268c-5.273-14.62-13.766-29.232-13.766-29.232
	c12.129-3.649,44.156-7.688,50.234-8.923C513.959,183.895,511.518,178.212,511.518,178.212z M128.489,285.53
	c0,0-0.736,2.304-3.227,2.109c-2.54-0.208-42.984-2.97-56.467-6.203c-13.53-3.261-20.565-8.617-21.627-25.665
	c0,0-0.063-10.901,0.264-12.691c0.285-1.887,8.104-18.942,24.306-13.571c16.222,5.447,41.076,17.326,41.076,17.326
	s12.434,6.182,15.675,30.022V285.53L128.489,285.53z M254.152,185.505c-42.151,0.381-179.972,4.829-179.972,4.829
	c18.741-41.618,43.096-77.046,48.785-86.371c0.95-1.547,3.067-2.554,3.948-2.671c34.415-3.81,128.029-4.559,128.029-4.559h0.84
	c0,0,93.566,0.77,128.037,4.559c0.86,0.131,2.982,1.124,3.913,2.671c5.676,9.325,30.058,44.753,48.792,86.371
	c0,0-137.786-4.435-179.944-4.829H254.152z M463.821,243.108c0.319,1.79,0.29,12.69,0.29,12.69
	c-1.081,17.048-8.09,22.404-21.605,25.666c-13.53,3.232-53.954,5.995-56.521,6.202c-2.54,0.195-3.22-2.109-3.22-2.109v-8.673
	c3.22-23.854,15.653-30.022,15.653-30.022s24.868-11.879,41.09-17.319C455.758,224.166,463.53,241.221,463.821,243.108z"/>
</svg>
