<?xml version="1.0" encoding="utf-8"?>
<!-- Generator: Adobe Illustrator 16.0.3, SVG Export Plug-In . SVG Version: 6.00 Build 0)  -->
<!DOCTYPE svg PUBLIC "-//W3C//DTD SVG 1.1//EN" "http://www.w3.org/Graphics/SVG/1.1/DTD/svg11.dtd">
<svg version="1.1" id="Layer_1" xmlns="http://www.w3.org/2000/svg" xmlns:xlink="http://www.w3.org/1999/xlink" x="0px" y="0px"
	 width="512px" height="512px" viewBox="0 0 512 512" enable-background="new 0 0 512 512" xml:space="preserve">
<g>
	<path fill="#333333" d="M255.954,429.113c-56.455-23.178-99.228-61.156-120.481-107.037
		c-22.696-49.045-24.858-127.083-23.989-170.951c65.739-7.701,116.37-35.292,147.937-57.758
		c29.002,22.466,76.436,50.024,141.017,57.732c0.975,44.549-1.037,123.735-23.877,173.202
		C355.657,369.369,313.977,405.586,255.954,429.113z"/>
	<path fill="#333333" d="M473.595,86.186C338.326,86.186,261.536,0,261.536,0S173.652,86.186,38.404,86.186
		c0,0-13.775,169.771,31.354,267.271C101.225,421.453,164.844,479.148,255.979,512c91.174-32.852,154.808-87.873,186.283-155.881
		C487.371,258.604,473.595,86.186,473.595,86.186z M406.537,339.992c-26.092,56.27-78.122,101.498-150.583,130.865
		c-70.515-28.93-123.914-76.359-150.459-133.652c-28.322-61.223-31.036-158.689-29.961-213.477
		c82.099-9.615,145.324-44.062,184.735-72.109c36.229,28.047,95.45,62.463,176.109,72.083
		C437.578,179.328,435.065,278.223,406.537,339.992z"/>
</g>
</svg>
