<?xml version="1.0" encoding="utf-8"?>
<!-- Generator: Adobe Illustrator 16.0.3, SVG Export Plug-In . SVG Version: 6.00 Build 0)  -->
<!DOCTYPE svg PUBLIC "-//W3C//DTD SVG 1.1//EN" "http://www.w3.org/Graphics/SVG/1.1/DTD/svg11.dtd">
<svg version="1.1" id="Layer_1" xmlns="http://www.w3.org/2000/svg" xmlns:xlink="http://www.w3.org/1999/xlink" x="0px" y="0px"
	 width="512px" height="512px" viewBox="0 0 512 512" enable-background="new 0 0 512 512" xml:space="preserve">
<g>
	<g>
		<path fill="#333333" d="M359.179,191.081c-3.48-17.929-7.183-31.531-7.183-31.531c-13.003-58.125,5.038-132.538-47.998-132.538
			c-51.806,0,15.66,132.309-73.571,157.4c-23.894,3.918-38.434,18.514-38.434,58.745v160.066c0,90.094,71.648,81.547,160.002,81.547
			c88.369,0,160.004-24.083,160.004-114.177v-106.02C512,176.603,444.596,190.384,359.179,191.081z M128.006,191.157H32.017
			C14.338,191.157,0,205.767,0,223.787v228.382c0,18.014,14.324,32.602,32.017,32.602h95.989c17.658,0,32.003-14.588,32.003-32.602
			V223.773C160.01,205.767,145.665,191.157,128.006,191.157z M80.851,431.372c-14.881,0-26.936-12.001-26.936-26.757
			c0-14.783,12.055-26.77,26.936-26.77s26.958,11.986,26.958,26.77C107.808,419.372,95.732,431.372,80.851,431.372z"/>
	</g>
</g>
</svg>
