<?xml version="1.0" encoding="utf-8"?>
<!-- Generator: Adobe Illustrator 16.0.3, SVG Export Plug-In . SVG Version: 6.00 Build 0)  -->
<!DOCTYPE svg PUBLIC "-//W3C//DTD SVG 1.1//EN" "http://www.w3.org/Graphics/SVG/1.1/DTD/svg11.dtd">
<svg version="1.1" id="Layer_1" xmlns="http://www.w3.org/2000/svg" xmlns:xlink="http://www.w3.org/1999/xlink" x="0px" y="0px"
	 width="512px" height="512px" viewBox="0 0 512 512" enable-background="new 0 0 512 512" xml:space="preserve">
<g>
	<path fill="#333333" d="M0,134.567v5.764V371.67v5.764c0.249,0,0.493,0.002,0.742,0.002C3.582,388.381,14.3,396.584,27,396.584
		c12.402,0,22.915-7.822,26.046-18.383c15.625,0.46,30.73,1.123,45.354,1.962c5.316,20.677,17.822,42.229,35.219,59.739
		c20.323,20.453,56.379,44.834,112.742,44.834c61.757,0,110.742-29.642,138.902-51.99c19.683,7.209,36.074,14.379,49.486,20.991
		V67.486c-54.014,28.269-163.56,61.802-381.642,66.515C50.053,123.338,39.481,115.416,27,115.416
		c-12.7,0-23.418,8.203-26.258,19.149C0.493,134.565,0.25,134.567,0,134.567z M127.325,382.098
		c97.968,7.516,172.028,23.187,226.587,40.081c-1.165,0.789-2.346,1.58-3.557,2.37c-23.216,15.142-60.103,33.188-103.997,33.188
		c-47.076,0-76.878-20.047-93.588-36.865C139.926,407.943,131.861,394.203,127.325,382.098z"/>
	<path fill="#333333" d="M458,54.128v403.744c0,14.85,12.15,27,27,27s27-12.15,27-27V54.128c0-14.85-12.15-27-27-27
		S458,39.278,458,54.128z"/>
</g>
</svg>
