<?xml version="1.0" encoding="utf-8"?>
<!-- Generator: Adobe Illustrator 16.0.3, SVG Export Plug-In . SVG Version: 6.00 Build 0)  -->
<!DOCTYPE svg PUBLIC "-//W3C//DTD SVG 1.1//EN" "http://www.w3.org/Graphics/SVG/1.1/DTD/svg11.dtd">
<svg version="1.1" id="Layer_1" xmlns="http://www.w3.org/2000/svg" xmlns:xlink="http://www.w3.org/1999/xlink" x="0px" y="0px"
	 width="512px" height="512px" viewBox="0 0 512 512" enable-background="new 0 0 512 512" xml:space="preserve">
<g>
	<path fill="#333333" d="M511.501,153.602c0,0,1.609,1.194-3.636-9.353c-5.301-10.552-30.499-11.788-39.436-12.599
		c-8.923-0.825-9.769,15.049-9.769,15.049l-10.962,0.395c-17.456-41.447-49.565-80.467-51.592-82.478
		c-2.08-2.067-6.938-4.482-6.938-4.482c-13.377-3.649-132.058-6.092-132.058-6.092h-0.319c0,0-0.29,0.014-0.818,0.028
		c-0.528-0.014-0.798-0.028-0.798-0.028h-0.326c0,0-118.674,2.442-132.057,6.092c0,0-4.885,2.449-6.904,4.482
		c-2.06,2.026-34.163,41.045-51.626,82.478l-10.954-0.395c0,0-0.819-15.86-9.762-15.049c-8.936,0.812-34.128,2.047-39.415,12.599
		c-5.287,10.546-3.649,9.353-3.649,9.353s-2.442,5.71,3.649,6.903c6.099,1.194,38.194,5.287,50.398,8.943
		c0,0-8.534,14.632-13.834,29.25c-5.287,14.653-7.702,15.479-9.339,20.321c0,0-0.825,2.06-1.221,6.507
		c-0.256,2.831-0.395,119.618-0.395,134.771c0,15.18,21.043,34.717,21.043,34.717l0.493,49.565c0,0-0.424,13.377,8.943,13.377
		c9.332,0,58.112,0,58.112,0s6.904-3.247,6.904-10.157s0.797-42.544,0.797-42.544h79.627h84.38h95.91c0,0,0.819,35.661,0.819,42.544
		c0,6.881,6.896,10.157,6.896,10.157s48.789,0,58.085,0c9.381,0,8.978-13.377,8.978-13.377l0.486-49.565
		c0,0,21.008-19.537,21.008-34.717c0-15.153-0.152-131.94-0.389-134.771c-0.388-4.447-1.193-6.507-1.193-6.507
		c-1.638-4.842-4.052-5.668-9.353-20.321c-5.301-14.604-13.82-29.25-13.82-29.25c12.197-3.657,44.277-7.729,50.397-8.943
		C513.985,159.298,511.501,153.602,511.501,153.602z M123.265,79.192c0.95-1.568,3.081-2.588,3.935-2.671
		c31.359-3.469,113.089-4.419,124.911-4.565c0,0.014,0,0.028,0,0.028c1.706-0.014,2.997-0.028,3.879-0.042
		c0.887,0.014,2.164,0.028,3.884,0.042c0,0,0-0.014,0-0.028c11.822,0.16,93.552,1.11,124.912,4.565
		c0.859,0.084,2.969,1.124,3.913,2.671c5.703,9.332,30.138,44.84,48.939,86.6c0,0-136.553-4.474-178.819-4.87h-2.441
		c-0.112,0-0.277,0-0.388,0c-0.112,0-0.271,0-0.396,0h-2.435c-42.266,0.395-178.82,4.87-178.82,4.87
		C93.141,124.019,117.563,88.524,123.265,79.192z M100.384,275.738c0,6.453-5.252,11.711-11.704,11.711H54.649
		c-6.466,0-11.697-5.258-11.697-11.711v-19.731v-19.725c0-6.445,5.231-11.704,11.697-11.704H88.68
		c6.466,0,11.704,5.259,11.704,11.704V275.738z M396.469,306.766H120.436h-4.961v-13.793h4.961H396.47L396.469,306.766
		L396.469,306.766z M396.469,273.282H120.436h-4.961v-13.765h4.961H396.47L396.469,273.282L396.469,273.282z M396.469,240.806
		H120.436h-4.961v-13.772h4.961H396.47L396.469,240.806L396.469,240.806z M469.027,236.282v19.725v19.731
		c0,6.438-5.26,11.698-11.712,11.698h-34.037c-6.468,0-11.698-5.259-11.698-11.698v-39.456c0-6.445,5.23-11.704,11.698-11.704
		h34.037C463.768,224.577,469.027,229.837,469.027,236.282z"/>
</g>
</svg>
