<?xml version="1.0" encoding="utf-8"?>
<!-- Generator: Adobe Illustrator 16.0.3, SVG Export Plug-In . SVG Version: 6.00 Build 0)  -->
<!DOCTYPE svg PUBLIC "-//W3C//DTD SVG 1.1//EN" "http://www.w3.org/Graphics/SVG/1.1/DTD/svg11.dtd">
<svg version="1.1" id="Layer_1" xmlns="http://www.w3.org/2000/svg" xmlns:xlink="http://www.w3.org/1999/xlink" x="0px" y="0px"
	 width="512px" height="512px" viewBox="0 0 512 512" enable-background="new 0 0 512 512" xml:space="preserve">
<path fill="#333333" d="M506.192,28.353c0.968-15.762-14.857-18.606-25.005-16.693c-10.176,1.85-81.56,42.581-124.112,44.508
	C314.34,57.961,233.817,5.156,171.754,0.523C109.685-4.13,63.34,23.769,63.34,23.769c0-0.386,0-0.441,0-0.988
	c0-6.602-14.598-12.86-27.801-13.021C18.727,9.605,5.096,21.751,4.963,24.533C4.563,30.805,3.057,494.41,6.771,499.987
	C10.491,505.566,18.859,512,32.707,512c25.72,0,27.086-16.777,27.871-17.591l1.78-133.405c0,0,54.685-24.164,105.668-26.883
	c50.935-2.733,114.918,42.566,196.38,54.648c81.518,12.082,140.833-56.526,142.754-66.675
	C509.01,311.919,505.239,44.079,506.192,28.353z M75.61,164.155c0,7.043-9.979,12.79-22.25,12.79
	c-12.285,0-22.188-5.747-22.188-12.79V60.428c0-7.05,9.888-12.79,22.188-12.79c12.271,0,22.25,5.739,22.25,12.79V164.155z"/>
</svg>
