<?xml version="1.0" encoding="utf-8"?>
<!-- Generator: Adobe Illustrator 16.0.3, SVG Export Plug-In . SVG Version: 6.00 Build 0)  -->
<!DOCTYPE svg PUBLIC "-//W3C//DTD SVG 1.1//EN" "http://www.w3.org/Graphics/SVG/1.1/DTD/svg11.dtd">
<svg version="1.1" id="Layer_1" xmlns="http://www.w3.org/2000/svg" xmlns:xlink="http://www.w3.org/1999/xlink" x="0px" y="0px"
	 width="512px" height="512px" viewBox="0 0 512 512" enable-background="new 0 0 512 512" xml:space="preserve">
<g>
	<polygon fill="#333333" points="56.579,226.229 56.579,497.946 198.919,497.946 198.919,327.142 312.786,327.142 312.786,497.946 
		455.084,497.946 455.084,226.229 255.828,99.421 	"/>
	<path fill="#333333" d="M502.936,178.273l-24.526-15.832l-23.019-15.35l-0.056-56.288c0-10.943-8.911-19.827-19.86-19.827h-17.432
		c-10.95,0-19.778,8.883-19.833,19.84l0.027,18.13l-0.07-0.042L255.855,14.054L9.069,177.602
		c-9.184,5.992-11.844,18.234-5.894,27.417l1.571,2.814c5.922,9.198,18.22,11.844,27.417,5.922L255.842,70.977l223.991,143.45
		c9.19,5.937,21.495,3.282,27.417-5.915l1.579-2.821C514.779,196.493,512.098,184.25,502.936,178.273z"/>
</g>
</svg>
