<?xml version="1.0" encoding="utf-8"?>
<!-- Generator: Adobe Illustrator 18.1.1, SVG Export Plug-In . SVG Version: 6.00 Build 0)  -->
<svg version="1.1" id="Layer_1" xmlns="http://www.w3.org/2000/svg" xmlns:xlink="http://www.w3.org/1999/xlink" x="0px" y="0px"
	 viewBox="0 0 512 512" enable-background="new 0 0 512 512" xml:space="preserve">
<g>
	<path fill="#010101" d="M512,390.4V160c0,0-233,162.6-255.6,171C234.1,323,0,160,0,160v230.4c0,32,6.8,38.4,38.4,38.4h435.2
		C506,428.8,512,423.2,512,390.4z"/>
	<path fill="#010101" d="M511.6,114.8c0-23.3-6.8-31.6-38-31.6H38.4C6.3,83.2,0,93.2,0,116.5l0.4,3.6c0,0,231.3,159.2,256,167.9
		C282.5,277.9,512,116.5,512,116.5L511.6,114.8z"/>
</g>
</svg>
